<?xml version="1.0" encoding="UTF-8"?>

<svg xmlns="http://www.w3.org/2000/svg" xmlns:xlink="http://www.w3.org/1999/xlink" width="7780" height="1753" viewBox="0 0 7780 1753">
<path fill-rule="nonzero" fill="#4c2f21" fill-opacity="1" d="M 920.5625 0.460938 C 891.878906 0.691406 862.964844 2.421875 834.546875 5.640625 C 760.71875 14.109375 688.472656 33.769531 620.589844 64.238281 C 312.828125 202.339844 113.257812 553.960938 133.558594 890.585938 C 137.367188 953.894531 147.828125 1017.234375 171.410156 1076.300781 C 263.199219 1306.222656 512.691406 1426.632812 738.21875 1480.390625 C 775.980469 1489.386719 814.183594 1496.941406 852.5625 1502.628906 C 902.574219 1510.066406 953.082031 1514.667969 1003.621094 1515.984375 C 1069.621094 1517.683594 1135.339844 1512.792969 1200.289062 1500.78125 C 1643.929688 1418.722656 1946.738281 1043.398438 2347.140625 866.472656 C 2421.121094 833.808594 2498.550781 808.933594 2577.269531 790.859375 C 2644.949219 775.304688 2714 764.757812 2783.460938 763.054688 C 2867.128906 760.976562 2954.761719 771.582031 3028.300781 814.589844 C 3102.539062 858.007812 3161.300781 924.597656 3196.289062 1003.640625 C 3219.28125 1055.675781 3236.449219 1110.722656 3242.570312 1167.5 C 3246.910156 1207.519531 3245.710938 1248.214844 3237.449219 1287.617188 C 3209.640625 1420.183594 3107.808594 1513.289062 2985.640625 1561.222656 C 2852.128906 1613.574219 2704.101562 1611.992188 2566.960938 1576.046875 C 2445.03125 1544.082031 2293.269531 1488.035156 2249.730469 1354.707031 C 2241.558594 1329.6875 2238.390625 1303.878906 2237.601562 1277.597656 C 2237.839844 1303.964844 2240.621094 1330.15625 2248.269531 1355.46875 C 2285.148438 1477.429688 2412.96875 1537.84375 2523.949219 1573.816406 C 2548.089844 1581.640625 2572.171875 1588.730469 2596.75 1594.941406 C 2725.890625 1627.695312 2866.78125 1626.289062 2992.640625 1580.117188 C 3131.949219 1529.023438 3244.390625 1422.617188 3270.140625 1271.679688 C 3273.890625 1249.734375 3275.53125 1227.527344 3275.679688 1205.320312 C 3275.800781 1183.085938 3274.300781 1160.96875 3271.261719 1138.964844 C 3263.109375 1079.960938 3245.089844 1021.339844 3219.429688 967.695312 C 3182.128906 889.707031 3122.539062 823.671875 3049.238281 778.613281 C 2985.410156 739.378906 2911.078125 722.308594 2837.128906 717.089844 C 2712.769531 708.300781 2586.96875 729.75 2467.351562 763.054688 C 2202.800781 836.710938 1982.109375 1002.472656 1756.078125 1152.296875 C 1568.789062 1276.484375 1366.171875 1393.261719 1138.910156 1416.261719 C 1027.578125 1427.539062 914.261719 1415.320312 805.511719 1390.304688 C 692.867188 1364.402344 581.832031 1323.621094 484.242188 1260.546875 C 388.5 1198.699219 303.65625 1110.253906 275.796875 996.230469 C 267.886719 963.800781 264.75 930.164062 263.316406 896.886719 C 261.148438 847.226562 263.8125 797.628906 271.753906 748.578125 C 280.308594 695.820312 293.109375 643.820312 312.5625 593.980469 C 376.519531 430.328125 500.589844 288.511719 659.554688 213.621094 C 719.847656 185.261719 784.828125 167.039062 851.070312 160.621094 C 899.058594 155.96875 947.574219 157.78125 995.53125 161.359375 C 1081.898438 167.828125 1169.621094 186.441406 1242.921875 235.128906 C 1318.148438 285.109375 1359.519531 362.269531 1364.230469 452.738281 C 1369.539062 554.398438 1325.300781 670.269531 1226.390625 711.140625 C 1199.289062 722.328125 1170.609375 726.488281 1141.460938 726.730469 C 1094.820312 727.339844 1057.410156 766.046875 1058.019531 813.097656 C 1058.671875 860.144531 1097.019531 897.5 1143.691406 896.886719 C 1194.28125 895.945312 1243.910156 887.097656 1290.699219 867.207031 C 1320.988281 854.347656 1349.558594 837.472656 1375.25 816.785156 C 1572.480469 658.261719 1579.539062 328.410156 1400.238281 153.941406 C 1295.328125 51.851562 1148.078125 11.96875 1006.199219 3.070312 C 977.691406 1.28125 949.242188 0.25 920.5625 0.460938 "/>
<path fill-rule="nonzero" fill="#4c2f21" fill-opacity="1" d="M 2089.828125 129.480469 C 2011.199219 137.480469 1935.078125 172.019531 1883.988281 234.011719 C 1858.300781 265.191406 1839.171875 302.328125 1824.808594 340.039062 C 1811.390625 375.25 1802.808594 412.460938 1800.550781 450.171875 C 1798.789062 479.230469 1800.609375 508.730469 1806.441406 537.261719 C 1840.460938 704.289062 1995.351562 821.007812 2156.359375 847.578125 C 2178.949219 851.300781 2201.949219 853.289062 2224.738281 853.496094 C 2247.558594 853.730469 2270.148438 852.148438 2292.738281 848.308594 C 2365.871094 835.917969 2433.570312 803.632812 2502.269531 777.117188 C 2531.738281 765.753906 2561.191406 756.347656 2591.601562 747.851562 C 2550.410156 757.226562 2510.589844 769.265625 2470.660156 783.066406 C 2397.328125 808.4375 2322.949219 836.53125 2244.21875 835.714844 C 2069.730469 833.867188 1879.210938 712.71875 1851.648438 529.121094 C 1848.691406 509.488281 1847.539062 489.628906 1848.71875 469.789062 C 1850.210938 443.691406 1855.570312 417.851562 1863.78125 393.070312 C 1888.53125 318.238281 1937.078125 249.308594 2012.28125 220.679688 C 2101.308594 186.761719 2205.550781 207.148438 2282.460938 261.078125 C 2325.078125 291 2356.609375 333.121094 2363.699219 385.648438 C 2371.71875 445.269531 2347.089844 528.121094 2285.769531 549.890625 C 2253.71875 561.261719 2218.300781 552.351562 2187.621094 540.609375 C 2175.289062 535.890625 2157.390625 529.878906 2156.359375 514.648438 C 2153.261719 483.121094 2125.511719 460.359375 2094.25 463.5 C 2062.988281 466.628906 2040.050781 494.609375 2043.160156 526.160156 C 2044.859375 541.339844 2047.988281 555.628906 2054.558594 569.519531 C 2078.898438 621.140625 2133.949219 644.460938 2185.78125 657.378906 C 2218.210938 665.5 2251.109375 668.871094 2284.300781 663.328125 C 2302.320312 660.308594 2319.898438 655.160156 2336.480469 647.390625 C 2455.25 591.640625 2496.058594 429.660156 2444.558594 314.109375 C 2411.160156 239.140625 2343.539062 181.859375 2268.128906 153.210938 C 2211.789062 131.828125 2149.738281 123.390625 2089.828125 129.480469 "/>
<path fill-rule="nonzero" fill="#4c2f21" fill-opacity="1" d="M 3644.351562 726.351562 C 3619.269531 725.609375 3594.050781 727.871094 3569.378906 731.910156 C 3506.328125 742.199219 3439.949219 765.78125 3389.609375 806.414062 C 3347.339844 840.574219 3314.730469 888.535156 3300.289062 941.355469 C 3288.480469 984.628906 3290.089844 1035.050781 3296.25 1079.285156 C 3301.398438 1116.171875 3312.070312 1152.472656 3331.171875 1184.550781 C 3367.289062 1245.164062 3433.96875 1286.472656 3501 1303.203125 C 3614.558594 1331.503906 3745.398438 1287.703125 3794.699219 1174.558594 C 3804.71875 1151.5625 3810.578125 1126.894531 3812.71875 1101.875 C 3816.558594 1056.523438 3806.980469 1012.488281 3792.121094 969.921875 C 3781.519531 940.097656 3748.910156 924.71875 3719.351562 935.4375 C 3689.789062 946.132812 3674.53125 979.003906 3685.160156 1008.828125 C 3697.609375 1042.960938 3706.398438 1079.902344 3696.558594 1115.96875 C 3682.910156 1165.945312 3635.859375 1194.921875 3587.019531 1200.867188 C 3532.640625 1207.488281 3474.609375 1186.980469 3435.578125 1148.222656 C 3409.191406 1122.058594 3399.660156 1084.03125 3395.5 1048.144531 C 3392.75 1024.324219 3390.460938 998.574219 3394.039062 974.726562 C 3399.078125 940.976562 3417.269531 907.898438 3441.441406 884.285156 C 3467.28125 859.03125 3501.53125 844.0625 3535.191406 832.753906 C 3601.398438 810.460938 3673.789062 801.902344 3738.828125 832.371094 C 3789.28125 856.015625 3830.679688 896.472656 3861.238281 942.851562 C 3917.28125 1027.898438 3943.179688 1142.539062 3910.480469 1241.269531 C 3901.78125 1267.578125 3888.628906 1291.777344 3872.628906 1314.304688 C 3787.820312 1433.808594 3632.929688 1497.882812 3492.53125 1516.71875 C 3279.488281 1545.3125 3073.738281 1471.367188 2872.789062 1410.691406 C 2806.261719 1390.597656 2739.578125 1372.460938 2671.71875 1357.3125 C 2595.988281 1340.410156 2516.570312 1324.121094 2438.671875 1329.890625 C 2398.359375 1332.851562 2356.988281 1342.988281 2327.308594 1372.140625 C 2365.191406 1337.21875 2420.011719 1332.234375 2469.199219 1333.964844 C 2518.789062 1335.691406 2567.871094 1344.71875 2616.238281 1355.46875 C 2652.269531 1363.46875 2688.371094 1372.195312 2723.929688 1382.15625 C 2972.488281 1451.738281 3212.160156 1576.453125 3477.089844 1557.148438 C 3522.679688 1553.808594 3568.179688 1546.191406 3612.390625 1534.53125 C 3764.441406 1494.363281 3929.558594 1395.3125 3974.089844 1233.125 C 4026.53125 1042.019531 3912.621094 794.988281 3718.238281 737.828125 C 3694.101562 730.738281 3669.429688 727.078125 3644.351562 726.351562 "/>
<path fill-rule="nonzero" fill="#4c2f21" fill-opacity="1" d="M 2932.351562 765.636719 C 2888.398438 763.175781 2844.171875 765.636719 2802.949219 782.335938 C 2773.710938 794.171875 2745.839844 810.515625 2722.820312 832.371094 C 2710.429688 844.121094 2698.789062 857.742188 2690.46875 872.773438 C 2641.140625 961.804688 2687.460938 1063.496094 2766.941406 1115.613281 C 2815.21875 1147.257812 2875.160156 1159.148438 2931.238281 1144.53125 C 2950.511719 1139.492188 2968.148438 1131.347656 2985.640625 1121.914062 C 2951.128906 1136.007812 2915.269531 1143.507812 2877.949219 1138.585938 C 2810.121094 1129.679688 2747.308594 1081.835938 2722.820312 1017.003906 C 2710.628906 984.71875 2708.699219 947.890625 2724.660156 916.515625 C 2747.050781 872.511719 2805.199219 845.90625 2852.21875 843.125 C 2875.460938 841.746094 2899.070312 845.90625 2921.691406 850.917969 C 2943.25 855.691406 2965.128906 860.789062 2985.640625 869.082031 C 3006.5 877.488281 3027.039062 888.535156 3046.671875 899.464844 C 3091.050781 924.160156 3136.429688 962.804688 3152.511719 1013.28125 C 3163 1043.164062 3195.699219 1059.070312 3225.320312 1048.496094 C 3247.53125 1040.554688 3261.851562 1020.019531 3263.171875 997.722656 C 3263.609375 990.28125 3262.5 982.578125 3259.859375 975.105469 C 3233.371094 904.0625 3173.808594 846.347656 3106.960938 813.476562 C 3072.039062 796.277344 3035.421875 785.144531 2997.769531 776.035156 C 2976.148438 770.789062 2954.621094 766.894531 2932.351562 765.636719 "/>
<path fill-rule="nonzero" fill="#4c2f21" fill-opacity="1" d="M 2837.511719 744.890625 C 2724.308594 744.160156 2624.558594 825.488281 2562.179688 918.738281 C 2538.660156 953.925781 2518.761719 991.074219 2509.238281 1032.558594 C 2492.511719 1105.625 2492.980469 1185.753906 2551.898438 1240.15625 C 2559.371094 1246.777344 2568.800781 1249.679688 2578 1249.0625 C 2587.171875 1248.445312 2596.078125 1244.375 2602.609375 1236.816406 C 2615.738281 1221.757812 2614.238281 1198.878906 2599.300781 1185.664062 C 2575.890625 1166.238281 2568.308594 1136.503906 2565.488281 1107.089844 C 2561.660156 1066.777344 2566.308594 1027.195312 2579.089844 988.816406 C 2622.511719 858.535156 2741.421875 734.371094 2886.761719 750.429688 C 2870.121094 746.769531 2853.691406 744.980469 2837.511719 744.890625 "/>
<path fill-rule="nonzero" fill="#4c2f21" fill-opacity="1" d="M 2784.960938 749.699219 C 2743.96875 754.679688 2703.828125 763.203125 2665.101562 777.882812 C 2593 805.183594 2529.550781 850.859375 2479.128906 909.480469 C 2466.910156 923.660156 2454.660156 938.191406 2444.558594 953.953125 C 2438.839844 962.890625 2433.800781 972.644531 2428.378906 981.785156 C 2400.289062 1029.246094 2378.898438 1083.535156 2385.378906 1139.695312 C 2388.128906 1159.558594 2406.5 1173.242188 2426.191406 1170.460938 C 2445.871094 1167.703125 2459.441406 1149.539062 2456.691406 1129.679688 C 2451.679688 1100.351562 2459.96875 1070.644531 2469.199219 1042.929688 C 2476.171875 1021.980469 2483.898438 1002.058594 2493.449219 982.140625 C 2508.039062 951.726562 2523.890625 922.988281 2544.898438 896.503906 C 2605.75 819.863281 2691.648438 773.28125 2784.960938 749.699219 "/>
<path fill-rule="nonzero" fill="#4c2f21" fill-opacity="1" d="M 2241.648438 1249.796875 C 2222.019531 1252.898438 2208.449219 1271.152344 2211.5 1290.957031 C 2218.03125 1328.074219 2228.730469 1363.613281 2247.148438 1396.601562 C 2261.890625 1422.96875 2281.171875 1445.058594 2303.050781 1465.566406 C 2331.089844 1491.875 2364.078125 1510.800781 2399.351562 1525.625 C 2486.859375 1562.421875 2585.859375 1569.746094 2679.078125 1556.035156 C 2710.429688 1551.40625 2741.128906 1543.730469 2771.328125 1534.148438 C 2745.050781 1539.394531 2718.71875 1543.320312 2691.941406 1544.902344 C 2543.371094 1553.691406 2364.609375 1505 2301.558594 1354.355469 C 2291.570312 1330.421875 2286.210938 1305.488281 2282.839844 1279.824219 C 2279.761719 1260.019531 2261.28125 1246.71875 2241.648438 1249.796875 "/>
<path fill-rule="nonzero" fill="#4c2f21" fill-opacity="1" d="M 2488.300781 1284.65625 C 2464.890625 1284.539062 2441.328125 1286.796875 2417.71875 1292.070312 C 2388.390625 1298.601562 2360.679688 1309.589844 2333.929688 1323.214844 C 2316.320312 1332.5 2309.621094 1354.386719 2318.839844 1372.140625 C 2328.070312 1389.890625 2349.75 1396.660156 2367.359375 1387.34375 C 2393.078125 1373.164062 2420.210938 1362.351562 2448.980469 1356.199219 C 2524.828125 1340 2603.171875 1355.675781 2675.769531 1379.199219 C 2829.691406 1429.03125 2980.039062 1527.351562 3147.390625 1511.152344 C 3047.570312 1512.179688 2958.660156 1473.007812 2871.320312 1428.125 C 2811.679688 1397.449219 2753.339844 1364.402344 2692.320312 1336.542969 C 2627.78125 1307.128906 2558.550781 1285.039062 2488.300781 1284.65625 "/>
<path fill-rule="nonzero" fill="#4c2f21" fill-opacity="1" d="M 3252.148438 1103.367188 C 3232.261719 1103.632812 3216.238281 1120.039062 3216.5 1140.078125 C 3181.78125 1169.578125 3168.101562 1177.578125 3181.929688 1169.726562 C 3193.03125 1163.429688 3204.140625 1155.078125 3216.851562 1154.902344 C 3221.601562 1154.84375 3217.671875 1164.570312 3217.960938 1169.347656 C 3218.699219 1181.972656 3219.550781 1194.511719 3219.808594 1207.167969 C 3220.660156 1252.550781 3208.648438 1290.050781 3169.449219 1315.421875 C 3145.628906 1330.828125 3114.519531 1340.117188 3086.359375 1333.230469 C 3041.191406 1322.15625 3025.070312 1273.730469 3045.929688 1234.617188 C 3058.820312 1210.449219 3083.988281 1191.671875 3111.730469 1190.847656 C 3119.089844 1190.644531 3126.730469 1191.699219 3133.789062 1193.839844 C 3129.460938 1191.847656 3125.621094 1188.800781 3120.898438 1187.890625 C 3066.589844 1177.605469 3020.039062 1223.867188 3016.171875 1274.285156 C 3014.851562 1291.074219 3018.480469 1308.214844 3027.921875 1323.945312 C 3049.011719 1359.132812 3085.339844 1373.808594 3123.480469 1373.984375 C 3161.628906 1374.1875 3201.5 1359.890625 3229.710938 1337.304688 C 3243.011719 1326.671875 3253.621094 1312.636719 3262.820312 1298.367188 C 3293.609375 1250.410156 3287.960938 1193.777344 3288.539062 1139.316406 C 3288.28125 1119.277344 3272.019531 1103.105469 3252.148438 1103.367188 Z M 3149.96875 1195.304688 C 3150.550781 1193.75 3149.46875 1193.164062 3142.609375 1197.179688 C 3144.019531 1197.996094 3145.628906 1198.496094 3147.011719 1199.375 C 3147.011719 1199.375 3149.351562 1196.855469 3149.96875 1195.304688 "/>
<path fill-rule="nonzero" fill="#4c2f21" fill-opacity="1" d="M 3538.851562 1545.636719 C 3494.878906 1542.058594 3450.898438 1557.5 3412.058594 1580.496094 C 3471.761719 1560.28125 3540.609375 1554.425781 3585.898438 1607.1875 C 3595.980469 1618.90625 3604.828125 1633.378906 3611.660156 1647.207031 C 3623.960938 1672.285156 3631.988281 1700.410156 3639.21875 1727.304688 C 3645.199219 1746.40625 3665.46875 1757.070312 3684.429688 1751.035156 C 3703.378906 1744.972656 3713.929688 1724.519531 3707.960938 1705.417969 C 3698.289062 1678.261719 3687.269531 1650.957031 3670.101562 1627.578125 C 3657.449219 1610.382812 3643.589844 1595 3626.710938 1581.964844 C 3613.121094 1571.445312 3598.53125 1562.449219 3582.589844 1556.035156 C 3568.058594 1550.144531 3553.53125 1546.835938 3538.851562 1545.636719 "/>
<path fill-rule="nonzero" fill="#4c2f21" fill-opacity="1" d="M 3595.460938 1332.472656 C 3575.679688 1330.683594 3558.28125 1345.128906 3556.519531 1365.105469 C 3556.050781 1375.597656 3555.050781 1386.140625 3552.089844 1396.25 C 3531.261719 1467.382812 3449.179688 1497.558594 3383.730469 1506.726562 C 3368.671875 1508.839844 3353.371094 1509.804688 3338.171875 1510.066406 C 3324.21875 1510.273438 3310.480469 1509.539062 3296.628906 1508.191406 C 3315 1513.761719 3333.449219 1518.125 3352.5 1520.789062 C 3368.429688 1523.046875 3384.550781 1524.160156 3400.660156 1524.511719 C 3481.691406 1526.300781 3581.101562 1503.738281 3616.050781 1420.332031 C 3622.609375 1404.6875 3626.101562 1388.546875 3628.179688 1371.785156 C 3629.96875 1351.804688 3615.261719 1334.257812 3595.460938 1332.472656 "/>
<path fill-rule="nonzero" fill="#4c2f21" fill-opacity="1" d="M 1184.121094 135.050781 C 1244.53125 197.800781 1295.269531 273.539062 1276.019531 365.261719 C 1259.53125 443.808594 1196.660156 505.601562 1126.75 539.140625 C 1106.480469 548.871094 1085.421875 555.460938 1063.910156 561.761719 C 1011.851562 576.988281 950.152344 576.851562 899.964844 554.320312 C 886.050781 548.078125 873.832031 539.871094 861.734375 530.609375 C 840.230469 515.03125 810.289062 520.039062 794.847656 541.71875 C 779.378906 563.398438 784.359375 593.601562 805.863281 609.191406 C 829.125 625.300781 853.0625 638.871094 880.132812 647.390625 C 1005.609375 686.878906 1145.96875 627.410156 1230.789062 532.078125 C 1280.859375 475.800781 1314.191406 401.679688 1305.410156 324.859375 C 1296.269531 244.820312 1243.558594 184.269531 1184.121094 135.050781 "/>
<path fill-rule="nonzero" fill="#4c2f21" fill-opacity="1" d="M 1204.679688 138.390625 C 1213.679688 152.328125 1221.878906 166.480469 1226.738281 182.480469 C 1241.800781 231.960938 1217.308594 271.628906 1174.191406 294.828125 C 1152.738281 306.378906 1132.789062 309.628906 1109.5 314.839844 C 1096.671875 317.710938 1084.390625 318.300781 1071.269531 318.921875 C 1050.109375 319.910156 1029.578125 319.378906 1008.78125 315.21875 C 982.554688 311.421875 958.5 329.929688 954.75 356.359375 C 951 382.808594 968.960938 407.070312 995.179688 410.851562 C 1008.691406 412.230469 1022.519531 412.871094 1035.960938 412.339844 C 1049.441406 411.820312 1062.710938 410.03125 1076.039062 407.160156 C 1089.691406 404.230469 1102.199219 399.601562 1115.011719 394.179688 C 1121.25 391.539062 1127.570312 389.488281 1133.761719 386.769531 C 1145.859375 381.410156 1157.488281 373.558594 1168.300781 366 C 1186.519531 353.28125 1203.539062 338.929688 1217.929688 321.871094 C 1253.371094 279.949219 1266.621094 227.269531 1237.410156 177.679688 C 1228.621094 162.710938 1217.160156 150.25 1204.679688 138.390625 "/>
<path fill-rule="nonzero" fill="#4c2f21" fill-opacity="1" d="M 574.652344 498.710938 C 515.914062 502.289062 460.015625 524.988281 413.285156 561 C 399.839844 571.371094 387.679688 583.378906 375.054688 594.75 C 332.71875 632.800781 298.0625 681.410156 271.019531 731.53125 C 255.289062 760.714844 242.132812 791.59375 232.789062 823.46875 C 213.890625 888.152344 211.050781 962.921875 250.453125 1020.691406 C 261.410156 1036.777344 274.886719 1049.929688 290.152344 1061.855469 C 278.492188 1049.871094 268.121094 1037.21875 260.003906 1022.539062 C 209.203125 930.839844 262.085938 819.539062 322.113281 746.738281 C 331.988281 734.761719 342.359375 723.148438 353.375 712.261719 C 367.933594 697.839844 383.375 684.570312 399.691406 672.210938 C 419.234375 657.410156 438.011719 643.878906 459.605469 632.191406 C 496.722656 612.03125 535.191406 595.539062 577.964844 595.480469 C 604.417969 594.539062 625.191406 572.128906 624.28125 545.441406 C 623.34375 518.75 601.109375 497.769531 574.652344 498.710938 "/>
<path fill-rule="nonzero" fill="#4c2f21" fill-opacity="1" d="M 46.8125 181.75 C 34.535156 182.039062 22.496094 186.929688 13.355469 196.570312 C 4.214844 206.238281 -0.152344 218.691406 0.113281 231.058594 C 0.40625 243.421875 5.238281 255.578125 14.820312 264.808594 C 62.925781 308.539062 100.804688 363.238281 126.558594 423.101562 C 137.542969 448.640625 147.945312 473.78125 155.621094 500.589844 C 191.539062 626.179688 189.429688 759.71875 178.03125 888.710938 C 200.414062 790.976562 216.703125 690.429688 217.347656 589.910156 C 217.582031 556.429688 216.207031 522.910156 212.574219 489.449219 C 205.367188 422.828125 189.808594 355.949219 157.816406 296.679688 C 137.367188 258.828125 111.03125 225.578125 81 195.109375 C 71.421875 185.878906 59.058594 181.480469 46.8125 181.75 "/>
<path fill-rule="nonzero" fill="#4c2f21" fill-opacity="1" d="M 2024.410156 941.738281 C 1974.28125 941.648438 1922.929688 953.046875 1878.828125 966.199219 C 1863.890625 970.652344 1849.449219 975.460938 1834.738281 980.675781 C 1814.089844 987.996094 1793.988281 996.054688 1773.71875 1004.375 C 1750.601562 1013.894531 1727.25 1023.800781 1704.609375 1034.402344 C 1635.699219 1066.71875 1571.101562 1107.703125 1507.230469 1148.953125 C 1410.140625 1211.648438 1314.550781 1277.773438 1211.691406 1330.625 C 1161.320312 1356.492188 1109.5 1378.054688 1055.441406 1394.757812 C 1017.421875 1406.53125 979.183594 1414.296875 939.3125 1415.527344 C 800.296875 1419.773438 678.335938 1345.535156 547.816406 1309.503906 C 522.210938 1302.703125 495.757812 1318.144531 489.019531 1343.953125 C 482.25 1369.796875 497.574219 1396.101562 523.179688 1402.898438 C 594.632812 1421.0625 662.339844 1450.597656 732.710938 1472.246094 C 795.113281 1491.433594 860.179688 1504.003906 925.6875 1500.050781 C 1046.710938 1492.722656 1158.601562 1438.289062 1259.820312 1374.746094 C 1353.480469 1315.945312 1440.699219 1248.214844 1530 1183.085938 C 1585.75 1142.421875 1642.410156 1102.195312 1702.410156 1068.152344 C 1728.71875 1053.214844 1755.929688 1039.589844 1783.269531 1026.640625 C 1802.78125 1017.410156 1822.171875 1008.214844 1842.089844 999.949219 C 1863.070312 991.222656 1884.429688 983.191406 1906.050781 976.222656 C 1986.058594 950.351562 2087.980469 932.335938 2159.671875 989.550781 C 2174.148438 1001.09375 2185.460938 1014.863281 2196.058594 1029.980469 C 2186.191406 1014.1875 2175.488281 999.71875 2161.519531 987.324219 C 2123.398438 953.515625 2074.539062 941.824219 2024.410156 941.738281 "/>
<path fill-rule="nonzero" fill="#4c2f21" fill-opacity="1" d="M 3364.238281 913.203125 C 3361.71875 930.195312 3360 947.890625 3359.46875 965.46875 C 3357.910156 1018.144531 3368.140625 1070.761719 3407.25 1109.316406 C 3470.390625 1171.484375 3599.640625 1201.453125 3659.441406 1118.574219 C 3668.898438 1105.449219 3675.140625 1090.597656 3680 1075.183594 C 3682 1068.769531 3678.308594 1061.972656 3671.921875 1060.011719 C 3665.558594 1058.015625 3658.820312 1061.738281 3656.859375 1068.152344 C 3652.988281 1081.222656 3648.039062 1093.585938 3640.308594 1104.863281 C 3597.449219 1167.296875 3504.429688 1157.628906 3446.601562 1125.253906 C 3435.050781 1118.777344 3423.800781 1111.074219 3413.871094 1102.257812 C 3360.820312 1055 3357.53125 979.324219 3364.238281 913.203125 "/>
<path fill-rule="nonzero" fill="#4c2f21" fill-opacity="1" d="M 2137.988281 171.378906 C 2213.488281 189.28125 2291.160156 236.039062 2309.289062 317.800781 C 2318.929688 361.308594 2299.210938 411.410156 2269.589844 443.109375 C 2254.070312 459.71875 2235.050781 470.03125 2212.261719 466.101562 C 2205.671875 465.050781 2199.308594 469.820312 2198.289062 476.46875 C 2197.230469 483.121094 2201.628906 489.128906 2208.191406 490.191406 C 2275.75 500.210938 2317.53125 426.351562 2325.820312 368.21875 C 2327.839844 354.21875 2328.128906 339.480469 2325.078125 325.601562 C 2305.308594 235.269531 2222.339844 186.730469 2137.988281 171.378906 "/>
<path fill-rule="nonzero" fill="#4c2f21" fill-opacity="1" d="M 6859.300781 0.460938 C 6887.980469 0.691406 6916.871094 2.421875 6945.320312 5.640625 C 7019.121094 14.109375 7091.359375 33.769531 7159.238281 64.238281 C 7467.011719 202.339844 7666.578125 553.960938 7646.300781 890.585938 C 7642.46875 953.894531 7632.011719 1017.234375 7608.421875 1076.300781 C 7516.660156 1306.222656 7267.140625 1426.632812 7041.621094 1480.390625 C 7003.851562 1489.386719 6965.679688 1496.941406 6927.300781 1502.628906 C 6877.289062 1510.066406 6826.75 1514.667969 6776.21875 1515.984375 C 6710.210938 1517.683594 6644.5 1512.792969 6579.550781 1500.78125 C 6135.898438 1418.722656 5833.089844 1043.398438 5432.691406 866.472656 C 5358.75 833.808594 5281.289062 808.933594 5202.589844 790.859375 C 5134.921875 775.304688 5065.839844 764.757812 4996.371094 763.054688 C 4912.730469 760.976562 4825.101562 771.582031 4751.570312 814.589844 C 4677.300781 858.007812 4618.558594 924.597656 4583.578125 1003.640625 C 4560.550781 1055.675781 4543.378906 1110.722656 4537.261719 1167.5 C 4532.960938 1207.519531 4534.128906 1248.214844 4542.421875 1287.617188 C 4570.21875 1420.183594 4672.03125 1513.289062 4794.191406 1561.222656 C 4927.699219 1613.574219 5075.738281 1611.992188 5212.878906 1576.046875 C 5334.808594 1544.082031 5486.601562 1488.035156 5530.101562 1354.707031 C 5538.28125 1329.6875 5541.441406 1303.878906 5542.230469 1277.597656 C 5542.03125 1303.964844 5539.210938 1330.15625 5531.570312 1355.46875 C 5494.679688 1477.429688 5366.859375 1537.84375 5255.878906 1573.816406 C 5231.769531 1581.640625 5207.660156 1588.730469 5183.109375 1594.941406 C 5053.941406 1627.695312 4913.050781 1626.289062 4787.21875 1580.117188 C 4647.890625 1529.023438 4535.441406 1422.617188 4509.691406 1271.679688 C 4505.941406 1249.734375 4504.300781 1227.527344 4504.191406 1205.320312 C 4504.039062 1183.085938 4505.53125 1160.96875 4508.578125 1138.964844 C 4516.75 1079.960938 4534.769531 1021.339844 4560.410156 967.695312 C 4597.699219 889.707031 4657.320312 823.671875 4730.621094 778.613281 C 4794.460938 739.378906 4868.75 722.308594 4942.699219 717.089844 C 5067.101562 708.300781 5192.871094 729.75 5312.488281 763.054688 C 5577.039062 836.710938 5797.730469 1002.472656 6023.789062 1152.296875 C 6211.078125 1276.484375 6413.699219 1393.261719 6640.949219 1416.261719 C 6752.28125 1427.539062 6865.601562 1415.320312 6974.351562 1390.304688 C 7086.96875 1364.402344 7198 1323.621094 7295.621094 1260.546875 C 7391.328125 1198.699219 7476.179688 1110.253906 7504.039062 996.230469 C 7511.949219 963.800781 7515.078125 930.164062 7516.550781 896.886719 C 7518.691406 847.226562 7516.019531 797.65625 7508.078125 748.578125 C 7499.53125 695.820312 7486.75 643.820312 7467.269531 593.980469 C 7403.320312 430.328125 7279.238281 288.511719 7120.28125 213.621094 C 7060.011719 185.261719 6995 167.039062 6928.761719 160.621094 C 6880.808594 155.96875 6832.289062 157.78125 6784.300781 161.359375 C 6697.941406 167.828125 6610.25 186.441406 6536.921875 235.128906 C 6461.691406 285.109375 6420.351562 362.269531 6415.628906 452.738281 C 6410.328125 554.398438 6454.539062 670.269531 6553.46875 711.140625 C 6580.570312 722.328125 6609.21875 726.488281 6638.371094 726.730469 C 6685.011719 727.339844 6722.460938 766.046875 6721.808594 813.097656 C 6721.199219 860.144531 6682.820312 897.5 6636.179688 896.886719 C 6585.550781 895.945312 6535.949219 887.097656 6489.140625 867.207031 C 6458.839844 854.347656 6430.308594 837.472656 6404.589844 816.785156 C 6207.359375 658.261719 6200.300781 328.410156 6379.601562 153.941406 C 6484.511719 51.851562 6631.78125 11.96875 6773.640625 3.070312 C 6802.171875 1.28125 6830.621094 0.25 6859.300781 0.460938 "/>
<path fill-rule="nonzero" fill="#4c2f21" fill-opacity="1" d="M 5690 129.480469 C 5768.640625 137.480469 5844.75 172.019531 5895.851562 234.011719 C 5921.539062 265.191406 5940.671875 302.328125 5955.03125 340.039062 C 5968.441406 375.25 5977.03125 412.460938 5979.28125 450.171875 C 5981.039062 479.230469 5979.21875 508.730469 5973.421875 537.261719 C 5939.378906 704.289062 5784.488281 821.007812 5623.46875 847.578125 C 5600.878906 851.300781 5577.910156 853.289062 5555.089844 853.496094 C 5532.300781 853.730469 5509.710938 852.148438 5487.101562 848.308594 C 5414 835.917969 5346.289062 803.632812 5277.558594 777.148438 C 5248.089844 765.753906 5218.648438 756.347656 5188.238281 747.851562 C 5229.429688 757.226562 5269.269531 769.265625 5309.179688 783.066406 C 5382.539062 808.4375 5456.921875 836.53125 5535.609375 835.714844 C 5710.101562 833.867188 5900.648438 712.71875 5928.191406 529.121094 C 5931.148438 509.488281 5932.289062 489.628906 5931.148438 469.789062 C 5929.621094 443.691406 5924.261719 417.851562 5916.058594 393.070312 C 5891.300781 318.238281 5842.761719 249.308594 5767.550781 220.679688 C 5678.519531 186.761719 5574.28125 207.148438 5497.378906 261.078125 C 5454.75 291 5423.230469 333.121094 5416.171875 385.648438 C 5408.109375 445.269531 5432.78125 528.121094 5494.070312 549.890625 C 5526.121094 561.261719 5561.570312 552.351562 5592.210938 540.609375 C 5604.550781 535.890625 5622.449219 529.878906 5623.46875 514.648438 C 5626.578125 483.121094 5654.320312 460.359375 5685.578125 463.5 C 5716.871094 466.628906 5739.78125 494.609375 5736.679688 526.160156 C 5734.980469 541.339844 5731.839844 555.628906 5725.28125 569.519531 C 5700.960938 621.140625 5645.878906 644.460938 5594.058594 657.378906 C 5561.628906 665.5 5528.75 668.871094 5495.558594 663.328125 C 5477.519531 660.308594 5459.941406 655.160156 5443.359375 647.390625 C 5324.621094 591.640625 5283.78125 429.660156 5335.28125 314.109375 C 5368.679688 239.140625 5436.289062 181.859375 5511.730469 153.210938 C 5568.039062 131.828125 5630.089844 123.390625 5690 129.480469 "/>
<path fill-rule="nonzero" fill="#4c2f21" fill-opacity="1" d="M 4135.480469 726.351562 C 4160.558594 725.609375 4185.789062 727.871094 4210.480469 731.910156 C 4273.53125 742.199219 4339.890625 765.78125 4390.21875 806.414062 C 4432.53125 840.574219 4465.128906 888.535156 4479.550781 941.355469 C 4491.351562 984.628906 4489.769531 1035.050781 4483.589844 1079.285156 C 4478.429688 1116.171875 4467.800781 1152.472656 4448.671875 1184.550781 C 4412.570312 1245.164062 4345.890625 1286.472656 4278.828125 1303.203125 C 4165.28125 1331.503906 4034.46875 1287.703125 3985.128906 1174.558594 C 3975.109375 1151.5625 3969.25 1126.894531 3967.140625 1101.875 C 3963.28125 1056.523438 3972.859375 1012.488281 3987.710938 969.921875 C 3998.339844 940.097656 4030.921875 924.71875 4060.511719 935.4375 C 4090.070312 946.132812 4105.308594 979.003906 4094.671875 1008.828125 C 4082.21875 1042.960938 4073.429688 1079.902344 4083.28125 1115.96875 C 4096.929688 1165.945312 4143.980469 1194.921875 4192.820312 1200.867188 C 4247.21875 1207.488281 4305.230469 1186.980469 4344.28125 1148.222656 C 4370.648438 1122.058594 4380.171875 1084.0625 4384.328125 1048.144531 C 4387.121094 1024.324219 4389.371094 998.574219 4385.828125 974.726562 C 4380.761719 940.976562 4362.589844 907.898438 4338.390625 884.285156 C 4312.550781 859.03125 4278.308594 844.0625 4244.671875 832.753906 C 4178.429688 810.460938 4106.039062 801.902344 4041.03125 832.371094 C 3990.550781 856.015625 3949.191406 896.472656 3918.601562 942.851562 C 3862.550781 1027.898438 3836.660156 1142.539062 3869.351562 1241.269531 C 3878.050781 1267.578125 3891.238281 1291.777344 3907.199219 1314.304688 C 3992.019531 1433.808594 4146.910156 1497.882812 4287.300781 1516.71875 C 4500.378906 1545.3125 4706.128906 1471.367188 4907.050781 1410.691406 C 4973.609375 1390.597656 5040.289062 1372.460938 5108.109375 1357.3125 C 5183.839844 1340.410156 5263.269531 1324.121094 5341.171875 1329.890625 C 5381.511719 1332.851562 5422.878906 1342.988281 5452.550781 1372.140625 C 5414.640625 1337.21875 5359.828125 1332.234375 5310.671875 1333.964844 C 5261.039062 1335.691406 5211.96875 1344.71875 5163.628906 1355.46875 C 5127.589844 1363.46875 5091.46875 1372.195312 5055.929688 1382.15625 C 4807.378906 1451.738281 4567.671875 1576.453125 4302.738281 1557.148438 C 4257.148438 1553.808594 4211.691406 1546.191406 4167.480469 1534.53125 C 4015.398438 1494.363281 3850.28125 1395.3125 3805.78125 1233.125 C 3753.308594 1042.019531 3867.238281 794.988281 4061.601562 737.828125 C 4085.769531 730.738281 4110.410156 727.078125 4135.480469 726.351562 "/>
<path fill-rule="nonzero" fill="#4c2f21" fill-opacity="1" d="M 4847.488281 765.636719 C 4891.429688 763.175781 4935.699219 765.636719 4976.890625 782.335938 C 5006.128906 794.171875 5033.988281 810.515625 5057.019531 832.371094 C 5069.410156 844.121094 5081.039062 857.742188 5089.359375 872.773438 C 5138.699219 961.804688 5092.410156 1063.496094 5012.929688 1115.613281 C 4964.621094 1147.257812 4904.699219 1159.148438 4848.601562 1144.53125 C 4829.320312 1139.492188 4811.691406 1131.347656 4794.191406 1121.914062 C 4828.710938 1136.007812 4864.570312 1143.507812 4901.890625 1138.585938 C 4969.738281 1129.679688 5032.53125 1081.835938 5057.019531 1017.003906 C 5069.210938 984.71875 5071.140625 947.890625 5055.171875 916.515625 C 5032.789062 872.511719 4974.660156 845.90625 4927.640625 843.125 C 4904.378906 841.746094 4880.769531 845.90625 4858.148438 850.917969 C 4836.621094 855.691406 4814.730469 860.789062 4794.191406 869.082031 C 4773.371094 877.488281 4752.828125 888.535156 4733.171875 899.464844 C 4688.789062 924.160156 4643.398438 962.804688 4627.320312 1013.28125 C 4616.828125 1043.164062 4584.140625 1059.070312 4554.550781 1048.496094 C 4532.308594 1040.554688 4517.980469 1020.019531 4516.660156 997.722656 C 4516.230469 990.28125 4517.371094 982.578125 4519.980469 975.105469 C 4546.460938 904.0625 4606.050781 846.347656 4672.910156 813.476562 C 4707.800781 796.277344 4744.421875 785.144531 4782.070312 776.035156 C 4803.71875 770.789062 4825.21875 766.894531 4847.488281 765.636719 "/>
<path fill-rule="nonzero" fill="#4c2f21" fill-opacity="1" d="M 4942.351562 744.890625 C 5055.519531 744.160156 5155.28125 825.488281 5217.648438 918.738281 C 5241.179688 953.925781 5261.101562 991.074219 5270.589844 1032.558594 C 5287.351562 1105.625 5286.878906 1185.753906 5227.960938 1240.15625 C 5220.488281 1246.777344 5211.03125 1249.679688 5201.859375 1249.0625 C 5192.660156 1248.445312 5183.789062 1244.375 5177.21875 1236.816406 C 5164.128906 1221.757812 5165.589844 1198.90625 5180.53125 1185.664062 C 5203.941406 1166.238281 5211.558594 1136.503906 5214.339844 1107.089844 C 5218.179688 1066.777344 5213.519531 1027.195312 5200.75 988.816406 C 5157.359375 858.535156 5038.410156 734.371094 4893.070312 750.429688 C 4909.738281 746.769531 4926.179688 744.980469 4942.351562 744.890625 "/>
<path fill-rule="nonzero" fill="#4c2f21" fill-opacity="1" d="M 4994.910156 749.699219 C 5035.890625 754.679688 5076 763.203125 5114.730469 777.882812 C 5186.859375 805.183594 5250.320312 850.859375 5300.738281 909.480469 C 5312.929688 923.660156 5325.171875 938.191406 5335.28125 953.953125 C 5341.019531 962.890625 5346.058594 972.644531 5351.449219 981.785156 C 5379.578125 1029.246094 5400.929688 1083.535156 5394.460938 1139.695312 C 5391.730469 1159.558594 5373.339844 1173.242188 5353.679688 1170.460938 C 5333.988281 1167.703125 5320.429688 1149.539062 5323.148438 1129.679688 C 5328.160156 1100.351562 5319.871094 1070.644531 5310.671875 1042.929688 C 5303.671875 1021.980469 5295.929688 1002.058594 5286.378906 982.140625 C 5271.820312 951.726562 5255.941406 922.988281 5234.941406 896.503906 C 5174.121094 819.863281 5088.191406 773.28125 4994.910156 749.699219 "/>
<path fill-rule="nonzero" fill="#4c2f21" fill-opacity="1" d="M 5538.191406 1249.796875 C 5557.820312 1252.898438 5571.410156 1271.152344 5568.339844 1290.957031 C 5561.800781 1328.074219 5551.140625 1363.613281 5532.679688 1396.601562 C 5517.941406 1422.96875 5498.671875 1445.058594 5476.808594 1465.566406 C 5448.75 1491.875 5415.761719 1510.800781 5380.480469 1525.625 C 5293 1562.421875 5193.980469 1569.746094 5100.761719 1556.035156 C 5069.410156 1551.40625 5038.710938 1543.730469 5008.5 1534.148438 C 5034.78125 1539.394531 5061.121094 1543.320312 5087.898438 1544.902344 C 5236.460938 1553.691406 5415.230469 1505 5478.28125 1354.355469 C 5488.300781 1330.421875 5493.660156 1305.488281 5497.03125 1279.824219 C 5500.070312 1260.019531 5518.558594 1246.71875 5538.191406 1249.796875 "/>
<path fill-rule="nonzero" fill="#4c2f21" fill-opacity="1" d="M 5291.539062 1284.65625 C 5314.949219 1284.539062 5338.53125 1286.796875 5362.121094 1292.070312 C 5391.441406 1298.601562 5419.160156 1309.589844 5445.929688 1323.214844 C 5463.539062 1332.5 5470.21875 1354.386719 5460.988281 1372.140625 C 5451.761719 1389.890625 5430.078125 1396.660156 5412.480469 1387.34375 C 5386.75 1373.164062 5359.621094 1362.351562 5330.878906 1356.199219 C 5255 1340 5176.660156 1355.675781 5104.070312 1379.199219 C 4950.140625 1429.03125 4799.789062 1527.351562 4632.480469 1511.152344 C 4732.261719 1512.179688 4821.179688 1473.007812 4908.511719 1428.125 C 4968.160156 1397.449219 5026.488281 1364.402344 5087.539062 1336.542969 C 5152.058594 1307.128906 5221.289062 1285.039062 5291.539062 1284.65625 "/>
<path fill-rule="nonzero" fill="#4c2f21" fill-opacity="1" d="M 4527.710938 1103.367188 C 4547.570312 1103.632812 4563.628906 1120.039062 4563.371094 1140.078125 C 4598.078125 1169.578125 4611.761719 1177.578125 4597.910156 1169.726562 C 4586.800781 1163.429688 4575.730469 1155.078125 4562.980469 1154.902344 C 4558.238281 1154.84375 4562.160156 1164.570312 4561.898438 1169.347656 C 4561.140625 1181.972656 4560.289062 1194.511719 4560.050781 1207.167969 C 4559.179688 1252.550781 4571.21875 1290.050781 4610.410156 1315.421875 C 4634.230469 1330.828125 4665.351562 1340.117188 4693.46875 1333.230469 C 4738.679688 1322.15625 4754.789062 1273.730469 4733.898438 1234.617188 C 4721.039062 1210.449219 4695.871094 1191.671875 4668.128906 1190.847656 C 4660.75 1190.644531 4653.101562 1191.699219 4646.070312 1193.839844 C 4650.378906 1191.847656 4654.210938 1188.800781 4658.929688 1187.890625 C 4713.28125 1177.605469 4759.800781 1223.867188 4763.699219 1274.285156 C 4764.988281 1291.074219 4761.351562 1308.214844 4751.921875 1323.945312 C 4730.828125 1359.132812 4694.5 1373.808594 4656.351562 1373.984375 C 4618.210938 1374.1875 4578.371094 1359.890625 4550.121094 1337.304688 C 4536.851562 1326.671875 4526.21875 1312.636719 4517.050781 1298.367188 C 4486.230469 1250.4375 4491.878906 1193.777344 4491.320312 1139.316406 C 4491.558594 1119.277344 4507.820312 1103.105469 4527.710938 1103.367188 Z M 4629.898438 1195.304688 C 4629.28125 1193.75 4630.371094 1193.164062 4637.25 1197.179688 C 4635.820312 1197.996094 4634.210938 1198.496094 4632.828125 1199.375 C 4632.828125 1199.375 4630.480469 1196.855469 4629.898438 1195.304688 "/>
<path fill-rule="nonzero" fill="#4c2f21" fill-opacity="1" d="M 4240.980469 1545.636719 C 4284.988281 1542.058594 4328.929688 1557.5 4367.808594 1580.496094 C 4308.101562 1560.28125 4239.21875 1554.425781 4193.929688 1607.1875 C 4183.878906 1618.90625 4175 1633.378906 4168.210938 1647.207031 C 4155.871094 1672.285156 4147.851562 1700.410156 4140.640625 1727.304688 C 4134.628906 1746.40625 4114.359375 1757.070312 4095.410156 1751.035156 C 4076.480469 1744.972656 4065.898438 1724.519531 4071.878906 1705.417969 C 4081.578125 1678.261719 4092.558594 1650.957031 4109.761719 1627.578125 C 4122.390625 1610.382812 4136.28125 1595 4153.121094 1581.964844 C 4166.738281 1571.445312 4181.300781 1562.449219 4197.238281 1556.035156 C 4211.769531 1550.144531 4226.328125 1546.835938 4240.980469 1545.636719 "/>
<path fill-rule="nonzero" fill="#4c2f21" fill-opacity="1" d="M 4184.378906 1332.472656 C 4204.160156 1330.683594 4221.558594 1345.128906 4223.351562 1365.105469 C 4223.808594 1375.597656 4224.78125 1386.140625 4227.738281 1396.25 C 4248.601562 1467.382812 4330.660156 1497.558594 4396.109375 1506.726562 C 4411.171875 1508.839844 4426.460938 1509.804688 4441.691406 1510.066406 C 4455.609375 1510.273438 4469.378906 1509.539062 4483.210938 1508.191406 C 4464.839844 1513.761719 4446.378906 1518.125 4427.339844 1520.789062 C 4411.398438 1523.046875 4395.289062 1524.160156 4379.210938 1524.511719 C 4298.140625 1526.300781 4198.738281 1503.738281 4163.789062 1420.332031 C 4157.21875 1404.6875 4153.738281 1388.546875 4151.660156 1371.785156 C 4149.898438 1351.804688 4164.578125 1334.257812 4184.378906 1332.472656 "/>
<path fill-rule="nonzero" fill="#4c2f21" fill-opacity="1" d="M 6595.75 135.050781 C 6535.339844 197.800781 6484.570312 273.539062 6503.839844 365.261719 C 6520.339844 443.808594 6583.179688 505.601562 6653.078125 539.140625 C 6673.351562 548.871094 6694.421875 555.460938 6715.921875 561.761719 C 6767.980469 576.988281 6829.679688 576.851562 6879.871094 554.320312 C 6893.808594 548.078125 6906.03125 539.871094 6918.101562 530.609375 C 6939.601562 515.03125 6969.550781 520.039062 6985.011719 541.71875 C 7000.449219 563.398438 6995.46875 593.601562 6973.96875 609.191406 C 6950.738281 625.300781 6926.769531 638.871094 6899.730469 647.390625 C 6774.21875 686.910156 6633.859375 627.410156 6549.050781 532.078125 C 6498.980469 475.800781 6465.640625 401.679688 6474.429688 324.859375 C 6483.570312 244.820312 6536.28125 184.269531 6595.75 135.050781 "/>
<path fill-rule="nonzero" fill="#4c2f21" fill-opacity="1" d="M 6575.148438 138.390625 C 6566.160156 152.328125 6557.949219 166.480469 6553.089844 182.480469 C 6538.03125 231.960938 6562.53125 271.628906 6605.648438 294.828125 C 6627.121094 306.378906 6647.078125 309.628906 6670.371094 314.839844 C 6683.171875 317.710938 6695.46875 318.300781 6708.570312 318.921875 C 6729.71875 319.910156 6750.261719 319.378906 6771.058594 315.21875 C 6797.28125 311.441406 6821.359375 329.929688 6825.109375 356.359375 C 6828.859375 382.808594 6810.871094 407.070312 6784.679688 410.851562 C 6771.148438 412.230469 6757.351562 412.871094 6743.871094 412.339844 C 6730.398438 411.820312 6717.148438 410.03125 6703.789062 407.160156 C 6690.171875 404.230469 6677.660156 399.601562 6664.828125 394.179688 C 6658.621094 391.539062 6652.261719 389.488281 6646.078125 386.769531 C 6634.011719 381.410156 6622.351562 373.558594 6611.539062 366 C 6593.351562 353.28125 6576.289062 338.929688 6561.910156 321.871094 C 6526.488281 279.949219 6513.25 227.269531 6542.429688 177.679688 C 6551.25 162.710938 6562.671875 150.25 6575.148438 138.390625 "/>
<path fill-rule="nonzero" fill="#4c2f21" fill-opacity="1" d="M 7205.179688 498.710938 C 7263.949219 502.289062 7319.820312 524.988281 7366.550781 561 C 7380 571.371094 7392.179688 583.378906 7404.78125 594.75 C 7447.121094 632.800781 7481.769531 681.410156 7508.808594 731.53125 C 7524.550781 760.714844 7537.730469 791.59375 7547.050781 823.46875 C 7565.941406 888.152344 7568.789062 962.921875 7529.410156 1020.691406 C 7518.421875 1036.777344 7504.949219 1049.929688 7489.710938 1061.855469 C 7501.339844 1049.871094 7511.710938 1037.21875 7519.828125 1022.539062 C 7570.628906 930.839844 7517.78125 819.539062 7457.71875 746.738281 C 7447.851562 734.761719 7437.5 723.148438 7426.488281 712.261719 C 7411.898438 697.839844 7396.460938 684.570312 7380.171875 672.210938 C 7360.628906 657.410156 7341.820312 643.878906 7320.230469 632.191406 C 7283.109375 612.03125 7244.640625 595.539062 7201.871094 595.480469 C 7175.410156 594.539062 7154.640625 572.128906 7155.550781 545.441406 C 7156.488281 518.75 7178.730469 497.769531 7205.179688 498.710938 "/>
<path fill-rule="nonzero" fill="#4c2f21" fill-opacity="1" d="M 7733.050781 181.75 C 7745.300781 182.039062 7757.339844 186.929688 7766.480469 196.570312 C 7775.648438 206.238281 7780.011719 218.691406 7779.71875 231.058594 C 7779.460938 243.421875 7774.601562 255.578125 7765.011719 264.808594 C 7716.941406 308.539062 7679.03125 363.238281 7653.28125 423.101562 C 7642.289062 448.640625 7631.921875 473.78125 7624.238281 500.589844 C 7588.300781 626.179688 7590.410156 759.71875 7601.800781 888.710938 C 7579.449219 790.976562 7563.160156 690.429688 7562.488281 589.910156 C 7562.25 556.429688 7563.628906 522.910156 7567.261719 489.449219 C 7574.46875 422.828125 7590.050781 355.949219 7622.019531 296.679688 C 7642.46875 258.828125 7668.800781 225.578125 7698.859375 195.109375 C 7708.410156 185.878906 7720.78125 181.480469 7733.050781 181.75 "/>
<path fill-rule="nonzero" fill="#4c2f21" fill-opacity="1" d="M 5755.429688 941.738281 C 5805.578125 941.648438 5856.941406 953.046875 5901 966.199219 C 5915.941406 970.652344 5930.410156 975.460938 5945.121094 980.675781 C 5965.78125 987.996094 5985.851562 996.054688 6006.121094 1004.375 C 6029.261719 1013.894531 6052.578125 1023.800781 6075.230469 1034.402344 C 6144.140625 1066.71875 6208.738281 1107.703125 6272.628906 1148.953125 C 6369.691406 1211.648438 6465.289062 1277.773438 6568.179688 1330.625 C 6618.511719 1356.492188 6670.371094 1378.054688 6724.390625 1394.757812 C 6762.449219 1406.53125 6800.648438 1414.296875 6840.550781 1415.527344 C 6979.570312 1419.773438 7101.5 1345.535156 7232.019531 1309.503906 C 7257.621094 1302.703125 7284.109375 1318.144531 7290.851562 1343.984375 C 7297.578125 1369.796875 7282.261719 1396.101562 7256.660156 1402.929688 C 7185.199219 1421.0625 7117.5 1450.597656 7047.121094 1472.246094 C 6984.71875 1491.433594 6919.648438 1504.003906 6854.148438 1500.050781 C 6733.148438 1492.722656 6621.261719 1438.289062 6520.019531 1374.746094 C 6426.351562 1315.945312 6339.140625 1248.214844 6249.839844 1183.085938 C 6194.121094 1142.421875 6137.460938 1102.195312 6077.429688 1068.152344 C 6051.121094 1053.214844 6023.898438 1039.589844 5996.570312 1026.640625 C 5977.089844 1017.410156 5957.660156 1008.214844 5937.769531 999.949219 C 5916.761719 991.222656 5895.410156 983.191406 5873.789062 976.222656 C 5793.800781 950.351562 5691.878906 932.335938 5620.160156 989.550781 C 5605.691406 1001.09375 5594.378906 1014.863281 5583.78125 1029.980469 C 5593.679688 1014.1875 5604.371094 999.71875 5618.320312 987.324219 C 5656.429688 953.515625 5705.300781 941.824219 5755.429688 941.738281 "/>
<path fill-rule="nonzero" fill="#4c2f21" fill-opacity="1" d="M 4415.589844 913.203125 C 4418.109375 930.195312 4419.839844 947.890625 4420.371094 965.46875 C 4421.921875 1018.144531 4411.691406 1070.761719 4372.578125 1109.316406 C 4309.449219 1171.484375 4180.21875 1201.453125 4120.429688 1118.574219 C 4110.929688 1105.449219 4104.71875 1090.597656 4099.828125 1075.183594 C 4097.871094 1068.769531 4101.558594 1061.972656 4107.910156 1060.011719 C 4114.300781 1058.015625 4121.011719 1061.738281 4123 1068.152344 C 4126.871094 1081.222656 4131.789062 1093.585938 4139.53125 1104.863281 C 4182.421875 1167.296875 4275.410156 1157.628906 4333.238281 1125.253906 C 4344.808594 1118.777344 4356.058594 1111.074219 4365.960938 1102.257812 C 4419.050781 1055 4422.328125 979.324219 4415.589844 913.203125 "/>
<path fill-rule="nonzero" fill="#4c2f21" fill-opacity="1" d="M 5641.839844 171.378906 C 5566.339844 189.28125 5488.679688 236.039062 5470.539062 317.800781 C 5460.898438 361.308594 5480.621094 411.410156 5510.269531 443.109375 C 5525.800781 459.71875 5544.78125 470.03125 5567.601562 466.101562 C 5574.191406 465.050781 5580.519531 469.820312 5581.578125 476.46875 C 5582.601562 483.121094 5578.238281 489.128906 5571.648438 490.191406 C 5504.089844 500.210938 5462.308594 426.351562 5454.019531 368.21875 C 5452.03125 354.21875 5451.710938 339.480469 5454.75 325.601562 C 5474.53125 235.269531 5557.5 186.730469 5641.839844 171.378906 "/>
</svg>
