<svg xmlns="http://www.w3.org/2000/svg" viewBox="0 0 277 257"><g><path fill="#fff" d="M138.5 0c76.5 0 138.5 57.5 138.5 128.5S215 257 138.5 257 0 199.5 0 128.5 62 0 138.5 0zm0 20C70.7 20 20 67.7 20 128.5S70.7 237 138.5 237 257 189.3 257 128.5 206.3 20 138.5 20z"/><path fill="#fff" d="M138.5 44c46.6 0 84.5 35.1 84.5 78.5s-37.9 78.5-84.5 78.5S54 166.9 54 122.5 91.9 44 138.5 44zm0 20c-35.3 0-64 26.6-64 58.5s28.7 58.5 64 58.5 64-26.6 64-58.5-28.7-58.5-64-58.5z"/><path fill="#fff" d="M138.5 88c17.1 0 31 12.9 31 28.5s-13.9 28.5-31 28.5-31-12.9-31-28.5 13.9-28.5 31-28.5zm0 10c-11.6 0-21 8.2-21 18.5s9.4 18.5 21 18.5 21-8.2 21-18.5-9.4-18.5-21-18.5z"/></g></svg>
