<svg xmlns="http://www.w3.org/2000/svg" width="876" height="568" fill="none" viewBox="0 0 876 568">
  <path fill="#DBAAA6" d="M874.363 31.292c-1.309-15.283-11.438-26.129-27.794-29.757-9.99-2.215-20.851-1.553-29.578-1.018-2.874.175-5.588.341-7.489.342l-768.585.167c-.556.01-1.115-.003-1.678-.007C30.595.954 10.371.829 2.808 21.693-.33 30.346.242 39.621.701 47.074c.131 2.139.256 4.159.256 5.692l.102 472.072c0 .687-.005 1.379-.009 2.074-.041 6.004-.092 13.476 2.682 20.713 3.981 10.39 12.584 17.22 24.26 19.281 1.4.291 2.819.438 4.232.438l739.453-.161h.096c7.472 0 14.955.197 22.876.405 7.95.209 16.031.422 24.163.422 8.319 0 16.69-.223 25.018-.899 13.499-1.098 20.815-7.952 24.577-13.51 3.927-5.802 5.931-12.98 6.125-21.944.208-9.615.136-19.277.065-28.621-.035-4.628-.07-9.253-.071-13.874l-.036-169.332-.041-188.239c-.002-10.545.303-21.569.598-32.23.615-22.331 1.254-45.42-.684-68.069Z"/>
  <path fill="#0C0E0B" d="M595.146 134.893c-54.464.014-98.604 44.183-98.593 98.644.014 54.471 44.173 98.61 98.634 98.6 54.481-.014 98.621-44.173 98.61-98.641-.014-54.464-44.174-98.614-98.651-98.603Zm45.957 103.322a46.624 46.624 0 0 1-10.706 25.876l-5.868-5.848-5.878 5.885 5.858 5.865a46.796 46.796 0 0 1-25.896 10.726v-8.296l-8.312.003.003 8.292a46.711 46.711 0 0 1-25.893-10.713l5.848-5.868-5.875-5.882-5.854 5.851a46.727 46.727 0 0 1-10.73-25.872h8.278l-.003-8.336-8.275.003c.87-9.808 4.75-18.736 10.716-25.882l5.858 5.854 5.871-5.875-5.848-5.875a46.753 46.753 0 0 1 25.886-10.716v8.275l8.312-.003-.003-8.275a46.805 46.805 0 0 1 25.899 10.706l-5.854 5.878 5.885 5.871 5.861-5.858c5.97 7.146 9.853 16.071 10.719 25.879h-8.285l.003 8.336 8.283-.001ZM281.055 408.026c95.996-.024 173.796-77.861 173.776-173.874-.02-95.989-77.858-173.796-173.854-173.776-95.996.02-173.799 77.865-173.776 173.854.02 96.013 77.858 173.817 173.854 173.796Zm-.973-224.68c28.075-.007 50.857 22.758 50.864 50.833.007 28.096-22.765 50.861-50.844 50.867-28.092.007-50.857-22.748-50.864-50.844-.006-28.077 22.749-50.849 50.844-50.856Z"/>
  <g filter="url(#a)">
    <path fill="#D7897D" d="m32.219 546.669 811.164-.177c5.797 0 10.482-4.705 10.478-10.485l-.109-503.998c-.003-5.786-4.688-10.488-10.485-10.485l-811.164.177c-5.78 0-10.482 4.705-10.478 10.492l.109 503.998c.003 5.779 4.705 10.481 10.485 10.478ZM547.8 229.902c.87-9.808 4.75-18.736 10.716-25.882l5.858 5.854 5.871-5.875-5.848-5.875a46.753 46.753 0 0 1 25.886-10.716v8.275l8.312-.003-.003-8.275a46.805 46.805 0 0 1 25.899 10.706l-5.854 5.878 5.885 5.871 5.861-5.858c5.97 7.146 9.853 16.071 10.719 25.879h-8.285l.003 8.336 8.282-.003a46.624 46.624 0 0 1-10.706 25.876l-5.868-5.848-5.878 5.885 5.858 5.865a46.796 46.796 0 0 1-25.896 10.726v-8.296l-8.312.003.003 8.292a46.711 46.711 0 0 1-25.893-10.713l5.848-5.868-5.875-5.882-5.854 5.851a46.727 46.727 0 0 1-10.73-25.872h8.278l-.003-8.336-8.274.005Zm-204.384-45.638 188.609-.041.02 102.632-188.605.041-.024-102.632ZM234.369 229.97c.853-9.808 4.733-18.733 10.713-25.882l5.851 5.854 5.888-5.875-5.858-5.871a46.728 46.728 0 0 1 25.886-10.719l.003 8.275h8.319l-.003-8.275a46.776 46.776 0 0 1 25.893 10.706l-5.858 5.875 5.885 5.871 5.848-5.858c5.984 7.146 9.87 16.071 10.726 25.879h-8.275v8.336h8.278a46.45 46.45 0 0 1-10.719 25.872l-5.848-5.848-5.882 5.885 5.858 5.865a46.724 46.724 0 0 1-25.886 10.726v-8.296l-8.319.003v8.292a46.687 46.687 0 0 1-25.889-10.713l5.854-5.868-5.892-5.882-5.848 5.851a46.442 46.442 0 0 1-10.726-25.869l8.275-.003v-8.336l-8.274.005Z"/>
    <path fill="#D7897D" d="m32.219 549.843 202.672-.044 383.992-.084 152.788-.033c23.3-.005 47.492 1.874 70.739-.015 11.385-.925 14.412-8.613 14.624-18.39.304-14.023-.006-28.087-.009-42.113l-.036-169.332-.041-188.24c-.007-32.508 2.753-66.385-.021-98.808-1.762-20.592-33.124-14.429-47.42-14.426l-127.388.028-378.768.083-262.43.057c-8.411.002-18.054-.82-21.662 9.132-2.631 7.256-.804 17.665-.803 25.104l.031 145.33.07 326.743c.002 10.66-1.1 22.652 12.817 24.896 3.996.644 5.716-5.471 1.688-6.121-12.227-1.971-8.158-22.277-8.16-29.87l-.013-59.009-.038-177.723-.037-172.951-.012-54.831c-.002-8.004-3.111-21.279 7.712-24.35 5.391-1.53 13.466-.003 19.004-.004l43.089-.009 142.703-.031a212348020834.497 212348020834.497 0 0 1 523.61-.114l51.027-.011c8.801-.002 18.774-1.321 27.496-.006 8.255 1.245 11.136 6.176 11.138 14.069l.009 42.747.035 163.823.04 183.971.015 67.482c.003 11.519 1.963 25.012.008 36.404-2.887 16.821-34.869 10.129-46.856 10.131l-126.32.028-368.57.08-263.089.057-13.632.003c-4.087 0-4.093 6.348-.002 6.347Z"/>
    <path fill="#D7897D" d="M550.861 230.746c1.345-9.524 4.627-17.478 10.396-25.124l-4.985.642 5.858 5.854c1.212 1.212 3.274 1.215 4.489 0l5.871-5.875c1.214-1.214 1.212-3.271 0-4.488l-5.848-5.875-.642 4.985c7.685-5.803 15.64-9.054 25.128-10.396l-4.018-3.06v8.275c0 1.715 1.454 3.174 3.174 3.174l8.312-.003c1.715-.001 3.174-1.453 3.174-3.174l-.003-8.275-4.018 3.06c9.526 1.344 17.49 4.619 25.141 10.386l-.642-4.985-5.854 5.878c-1.208 1.213-1.218 3.273 0 4.488l5.885 5.871c1.214 1.211 3.272 1.215 4.489 0l5.861-5.858-4.985-.642c5.803 7.685 9.062 15.632 10.4 25.121l3.06-4.018h-8.285c-1.715 0-3.175 1.454-3.174 3.174l.003 8.336c.001 1.715 1.454 3.174 3.174 3.174l8.282-.003-3.06-4.018c-1.337 9.523-4.613 17.477-10.386 25.117l4.985-.642-5.868-5.848c-1.214-1.209-3.273-1.217-4.488 0l-5.878 5.885c-1.212 1.213-1.214 3.272 0 4.488l5.858 5.865.642-4.985c-7.689 5.805-15.646 9.061-25.138 10.406l4.018 3.06v-8.296c0-1.715-1.454-3.174-3.174-3.174l-8.312.003c-1.715.001-3.174 1.454-3.174 3.174l.003 8.292 4.018-3.06c-9.528-1.342-17.488-4.619-25.135-10.393l.642 4.985 5.848-5.868c1.21-1.215 1.216-3.271 0-4.488l-5.875-5.882c-1.212-1.213-3.274-1.214-4.489 0l-5.854 5.851 4.985.642c-5.807-7.679-9.063-15.63-10.41-25.114l-3.06 4.018h8.278c1.715 0 3.175-1.454 3.174-3.174l-.003-8.336c-.001-1.715-1.454-3.174-3.174-3.174l-8.275.003c-4.084.002-4.091 6.349 0 6.348l8.275-.003-3.174-3.174.003 8.336 3.174-3.174h-8.278c-2.271 0-3.344 2.018-3.06 4.018 1.466 10.323 4.763 18.318 11.05 26.63 1.21 1.6 3.401 2.225 4.985.642l5.854-5.851h-4.489l5.875 5.882v-4.488l-5.848 5.868c-1.579 1.585-.961 3.774.642 4.985 8.322 6.284 16.32 9.577 26.651 11.033 1.999.282 4.018-.788 4.018-3.06l-.003-8.292-3.174 3.174 8.312-.003-3.174-3.174v8.296c0 2.271 2.018 3.344 4.018 3.06 10.331-1.464 18.331-4.762 26.654-11.046 1.602-1.209 2.223-3.402.642-4.985l-5.858-5.865v4.488l5.878-5.885h-4.488l5.868 5.848c1.585 1.579 3.774.961 4.985-.642 6.282-8.316 9.576-16.308 11.026-26.634.281-1.999-.787-4.018-3.06-4.018l-8.282.003 3.174 3.174-.003-8.336-3.174 3.174h8.285c2.273 0 3.342-2.018 3.06-4.018-1.456-10.329-4.757-18.317-11.039-26.637-1.209-1.601-3.402-2.224-4.985-.642l-5.861 5.858h4.489l-5.885-5.871v4.488l5.854-5.878c1.578-1.584.963-3.775-.642-4.985-8.326-6.276-16.328-9.568-26.658-11.026-1.999-.282-4.018.788-4.017 3.06l.003 8.275 3.174-3.174-8.312.003 3.174 3.174v-8.275c0-2.272-2.018-3.343-4.018-3.061-10.327 1.461-18.325 4.754-26.644 11.036-1.604 1.211-2.221 3.399-.642 4.985l5.848 5.875v-4.488l-5.871 5.875h4.489l-5.858-5.854c-1.582-1.581-3.776-.959-4.985.642-6.279 8.322-9.578 16.313-11.036 26.641-.568 3.997 5.547 5.724 6.117 1.689Zm-207.445-43.308 188.609-.041-3.174-3.174.02 102.632 3.174-3.174-188.605.041 3.174 3.174-.024-102.632c-.001-4.084-6.349-4.091-6.348 0l.024 102.632c0 1.715 1.454 3.174 3.174 3.174l188.605-.041c1.715 0 3.174-1.454 3.174-3.174l-.02-102.632c0-1.716-1.454-3.174-3.174-3.174l-188.609.041c-4.084.001-4.091 6.349 0 6.348Zm-105.987 43.376c1.332-9.531 4.615-17.48 10.393-25.124l-4.985.642 5.851 5.854c1.213 1.213 3.273 1.213 4.488 0l5.888-5.875c1.215-1.212 1.212-3.273 0-4.488l-5.858-5.871-.642 4.985c7.684-5.806 15.639-9.057 25.128-10.4l-4.017-3.06.003 8.275c.001 1.716 1.454 3.174 3.174 3.174h8.319c1.715 0 3.174-1.454 3.174-3.174l-.003-8.275-4.018 3.06c9.526 1.342 17.485 4.619 25.134 10.386l-.642-4.985-5.858 5.875c-1.209 1.213-1.217 3.274 0 4.488l5.885 5.871c1.213 1.21 3.274 1.217 4.488 0l5.848-5.858-4.985-.642c5.813 7.683 9.076 15.626 10.406 25.121l3.06-4.018h-8.275c-1.716 0-3.174 1.454-3.174 3.174v8.336c0 1.716 1.454 3.174 3.174 3.174h8.278l-3.06-4.018c-1.333 9.528-4.613 17.478-10.4 25.114l4.985-.642-5.848-5.848c-1.212-1.212-3.274-1.215-4.488 0l-5.882 5.885c-1.212 1.213-1.214 3.273 0 4.488l5.858 5.865.642-4.985c-7.684 5.807-15.638 9.063-25.128 10.406l4.017 3.06v-8.296c0-1.715-1.454-3.174-3.174-3.174l-8.319.003c-1.716.001-3.174 1.454-3.174 3.174v8.292l4.018-3.06c-9.527-1.342-17.486-4.617-25.131-10.393l.642 4.985 5.854-5.868c1.21-1.213 1.217-3.274 0-4.488l-5.892-5.882c-1.213-1.211-3.273-1.216-4.489 0l-5.848 5.851 4.985.642c-5.819-7.675-9.076-15.62-10.406-25.111l-3.06 4.018 8.275-.003c1.716-.001 3.174-1.454 3.174-3.174v-8.336c0-1.715-1.454-3.174-3.174-3.174l-8.275.003c-4.084.002-4.091 6.349 0 6.348l8.275-.003-3.174-3.174v8.336l3.174-3.174-8.275.003c-2.274.001-3.341 2.017-3.06 4.018 1.449 10.332 4.746 18.318 11.046 26.627 1.211 1.598 3.401 2.227 4.985.642l5.848-5.851h-4.489l5.892 5.882v-4.488l-5.854 5.868c-1.58 1.584-.96 3.774.642 4.985 8.32 6.285 16.317 9.578 26.647 11.033 2 .282 4.018-.788 4.018-3.06v-8.292l-3.174 3.174 8.319-.003-3.174-3.174v8.296c0 2.271 2.018 3.343 4.017 3.06 10.329-1.462 18.325-4.76 26.644-11.046 1.601-1.21 2.224-3.401.642-4.985l-5.858-5.865v4.488l5.882-5.885h-4.488l5.848 5.848c1.584 1.584 3.773.956 4.985-.642 6.298-8.311 9.594-16.298 11.039-26.63.28-2-.786-4.018-3.06-4.018h-8.278l3.174 3.174v-8.336l-3.174 3.174h8.275c2.274 0 3.341-2.018 3.06-4.018-1.449-10.336-4.752-18.319-11.046-26.637-1.209-1.598-3.403-2.227-4.985-.642l-5.848 5.858h4.488l-5.885-5.871v4.488l5.858-5.875c1.579-1.583.962-3.775-.642-4.985-8.325-6.276-16.322-9.571-26.651-11.026-1.999-.282-4.018.788-4.018 3.061l.003 8.275 3.174-3.174h-8.319l3.174 3.174-.003-8.275c-.001-2.272-2.017-3.344-4.017-3.061-10.328 1.461-18.325 4.755-26.644 11.039-1.602 1.21-2.223 3.401-.642 4.985l5.858 5.871v-4.488l-5.888 5.875h4.488l-5.851-5.854c-1.582-1.583-3.776-.957-4.985.642-6.289 8.321-9.588 16.305-11.033 26.641-.555 3.996 5.56 5.723 6.124 1.688Z"/>
  </g>
  <path fill="#DBAAA6" d="m115.53 381.549 644.467-.143c21.187-.003 38.356-17.182 38.353-38.366l-.051-227.771c-.003-21.187-17.182-38.356-38.37-38.353l-644.463.143c-21.187.003-38.356 17.182-38.353 38.366l.051 227.771c.003 21.188 17.182 38.356 38.366 38.353ZM547.8 229.902c.87-9.808 4.75-18.736 10.716-25.882l5.858 5.854 5.871-5.875-5.848-5.875a46.753 46.753 0 0 1 25.886-10.716v8.275l8.312-.003-.003-8.275a46.805 46.805 0 0 1 25.899 10.706l-5.854 5.878 5.885 5.871 5.861-5.858c5.97 7.146 9.853 16.071 10.719 25.879h-8.285l.003 8.336 8.282-.003a46.624 46.624 0 0 1-10.706 25.876l-5.868-5.848-5.878 5.885 5.858 5.865a46.796 46.796 0 0 1-25.896 10.726v-8.296l-8.312.003.003 8.292a46.711 46.711 0 0 1-25.893-10.713l5.848-5.868-5.875-5.882-5.854 5.851a46.727 46.727 0 0 1-10.73-25.872h8.278l-.003-8.336-8.274.005Zm-204.384-45.638 188.609-.041.02 102.632-188.605.041-.024-102.632ZM234.369 229.97c.853-9.808 4.733-18.733 10.713-25.882l5.851 5.854 5.888-5.875-5.858-5.871a46.728 46.728 0 0 1 25.886-10.719l.003 8.275h8.319l-.003-8.275a46.776 46.776 0 0 1 25.893 10.706l-5.858 5.875 5.885 5.871 5.848-5.858c5.984 7.146 9.87 16.071 10.726 25.879h-8.275v8.336h8.278a46.45 46.45 0 0 1-10.719 25.872l-5.848-5.848-5.882 5.885 5.858 5.865a46.724 46.724 0 0 1-25.886 10.726v-8.296l-8.319.003v8.292a46.687 46.687 0 0 1-25.889-10.713l5.854-5.868-5.892-5.882-5.848 5.851a46.442 46.442 0 0 1-10.726-25.869l8.275-.003v-8.336l-8.274.005Z"/>
  <path fill="#282828" d="m115.53 386.31 399.246-.089 216.257-.048c14.146-.003 31.756 2.251 45.161-3.194 33.098-13.445 26.914-51.834 26.907-80.493l-.03-132.373c-.005-24.147 6.795-62.525-10.171-82.61-14.514-17.182-34.803-15.347-54.695-15.343l-83.323.018-491.678.109c-15.609.003-31.307-.482-46.911.01-17.861.564-33.85 10.023-40.759 26.931-4.273 10.457-3.18 22.271-3.178 33.335.016 69.948-2.929 140.561.047 210.441 1.041 24.442 18.761 42.079 43.127 43.306 6.124.308 6.108-9.214 0-9.521-43.203-2.174-33.611-56.51-33.617-85.958l-.028-125.481c-.007-29.046-9.103-81.577 33.581-83.529 11.383-.521 22.912-.005 34.302-.008l463.154-.103c48.258-.011 96.736-1.377 144.98-.032 19.826.553 34.725 13.459 35.636 33.783.383 8.546.004 17.19.006 25.743l.027 121.934c.006 26.514 1.241 53.361.018 79.854-1.487 32.198-29.182 33.653-53.114 33.658l-189.803.042-426.496.094-8.646.003c-6.126.002-6.137 9.522 0 9.521Z"/>
  <path fill="#282828" d="M552.391 231.168c1.33-9.418 4.533-17.187 10.236-24.745l-7.477.964 5.858 5.854c1.818 1.817 4.911 1.823 6.733 0l5.871-5.875c1.821-1.822 1.818-4.906 0-6.733l-5.848-5.875-.964 7.477c7.599-5.738 15.369-8.909 24.749-10.236l-6.026-4.591v8.275c0 2.573 2.181 4.762 4.761 4.761l8.312-.003c2.573-.001 4.762-2.18 4.761-4.761l-.003-8.275-6.026 4.591c9.42 1.329 17.199 4.525 24.762 10.226l-.964-7.477-5.854 5.878c-1.813 1.82-1.827 4.91 0 6.733l5.885 5.871c1.82 1.816 4.908 1.823 6.733 0l5.861-5.858-7.477-.964c5.738 7.599 8.917 15.361 10.24 24.742l4.591-6.026h-8.285c-2.573 0-4.762 2.181-4.761 4.761l.003 8.336c.001 2.573 2.18 4.762 4.761 4.761l8.282-.003-4.591-6.026c-1.322 9.417-4.52 17.185-10.226 24.738l7.477-.964-5.868-5.848c-1.82-1.814-4.909-1.826-6.733 0l-5.878 5.885c-1.818 1.82-1.822 4.909 0 6.733l5.858 5.865.964-7.477c-7.603 5.74-15.375 8.916-24.759 10.246l6.026 4.591v-8.296c0-2.573-2.181-4.762-4.761-4.761l-8.312.003c-2.573.001-4.762 2.18-4.761 4.761l.003 8.292 6.026-4.591c-9.421-1.327-17.196-4.525-24.755-10.233l.964 7.477 5.848-5.868c1.816-1.822 1.823-4.907 0-6.733l-5.875-5.882c-1.817-1.82-4.911-1.821-6.733 0l-5.854 5.851 7.477.964c-5.742-7.593-8.919-15.359-10.25-24.735l-4.591 6.026h8.278c2.573 0 4.762-2.181 4.761-4.761l-.003-8.336c-.001-2.573-2.18-4.762-4.761-4.761l-8.275.003c-6.127.003-6.137 9.524 0 9.522l8.275-.003-4.761-4.761.003 8.336 4.761-4.761h-8.278c-3.406 0-5.016 3.027-4.591 6.026 1.478 10.41 4.87 18.626 11.21 27.009 1.815 2.4 5.102 3.337 7.477.964l5.854-5.851h-6.733l5.875 5.882v-6.733l-5.848 5.868c-2.369 2.377-1.441 5.661.964 7.477 8.393 6.338 16.612 9.725 27.03 11.193 2.998.422 6.028-1.181 6.026-4.591l-.003-8.292-4.761 4.761 8.312-.003-4.761-4.761v8.296c0 3.407 3.027 5.016 6.026 4.591 10.418-1.477 18.639-4.868 27.033-11.206 2.403-1.814 3.335-5.103.964-7.477l-5.858-5.865v6.733l5.878-5.885h-6.733l5.868 5.848c2.377 2.369 5.661 1.441 7.477-.964 6.336-8.387 9.724-16.6 11.186-27.013.421-2.998-1.18-6.028-4.591-6.026l-8.282.003 4.761 4.761-.003-8.336-4.761 4.761h8.285c3.409 0 5.014-3.027 4.591-6.026-1.469-10.416-4.864-18.625-11.199-27.016-1.814-2.402-5.103-3.336-7.477-.964l-5.861 5.858h6.733l-5.885-5.871v6.733l5.854-5.878c2.366-2.376 1.444-5.663-.964-7.477-8.398-6.329-16.62-9.716-27.037-11.186-2.998-.423-6.028 1.182-6.026 4.591l.003 8.275 4.761-4.761-8.312.003 4.761 4.761v-8.275c0-3.408-3.027-5.015-6.026-4.591-10.414 1.473-18.633 4.86-27.023 11.196-2.406 1.817-3.331 5.099-.964 7.477l5.848 5.875v-6.733l-5.871 5.875h6.733l-5.858-5.854c-2.373-2.372-5.664-1.439-7.477.964-6.333 8.392-9.725 16.605-11.196 27.02-.847 5.992 8.326 8.582 9.181 2.53Zm-208.975-42.143 188.609-.041-4.761-4.761.02 102.632 4.761-4.761-188.605.041 4.761 4.761-.024-102.632c-.001-6.127-9.523-6.137-9.521 0l.024 102.632c.001 2.573 2.181 4.761 4.761 4.761l188.605-.041c2.573-.001 4.761-2.181 4.761-4.761l-.02-102.632c0-2.573-2.181-4.761-4.761-4.761l-188.609.041c-6.127.002-6.137 9.523-.001 9.522ZM238.96 231.236c1.317-9.425 4.521-17.188 10.233-24.745l-7.477.964 5.851 5.854c1.819 1.82 4.909 1.819 6.733 0l5.888-5.875c1.822-1.818 1.818-4.91 0-6.733l-5.858-5.871-.964 7.477c7.599-5.741 15.368-8.913 24.749-10.24l-6.026-4.591.003 8.275c.001 2.573 2.18 4.761 4.761 4.761h8.319c2.573 0 4.762-2.181 4.761-4.761l-.003-8.275-6.026 4.591c9.419 1.327 17.194 4.525 24.755 10.226l-.964-7.477-5.858 5.875c-1.814 1.819-1.826 4.911 0 6.733l5.885 5.871c1.819 1.815 4.91 1.825 6.733 0l5.848-5.858-7.477-.964c5.748 7.597 8.931 15.355 10.246 24.742l4.591-6.026h-8.275c-2.574 0-4.761 2.181-4.761 4.761v8.336c0 2.573 2.181 4.761 4.761 4.761h8.278l-4.591-6.026c-1.318 9.422-4.52 17.186-10.24 24.735l7.477-.964-5.848-5.848c-1.818-1.818-4.911-1.823-6.733 0l-5.882 5.885c-1.818 1.819-1.821 4.909 0 6.733l5.858 5.865.964-7.477c-7.599 5.742-15.367 8.918-24.749 10.246l6.026 4.591v-8.296c0-2.573-2.181-4.762-4.761-4.761l-8.319.003c-2.574.001-4.761 2.18-4.761 4.761v8.292l6.026-4.591c-9.42-1.327-17.195-4.524-24.752-10.233l.964 7.477 5.854-5.868c1.815-1.819 1.825-4.91 0-6.733l-5.892-5.882c-1.819-1.816-4.91-1.824-6.733 0l-5.848 5.851 7.477.964c-5.754-7.589-8.931-15.349-10.246-24.732l-4.591 6.026 8.275-.003c2.574-.001 4.761-2.18 4.761-4.761v-8.336c0-2.573-2.181-4.762-4.761-4.761l-8.275.003c-6.126.003-6.137 9.524 0 9.522l8.275-.003-4.761-4.761v8.336l4.761-4.761-8.275.003c-3.41.001-5.011 3.026-4.591 6.026 1.461 10.419 4.853 18.626 11.206 27.006 1.817 2.396 5.101 3.341 7.477.964l5.848-5.851h-6.733l5.892 5.882v-6.733l-5.854 5.868c-2.371 2.376-1.44 5.662.964 7.477 8.391 6.339 16.609 9.725 27.026 11.193 2.999.423 6.026-1.182 6.026-4.591v-8.292l-4.761 4.761 8.319-.003-4.761-4.761v8.296c0 3.407 3.027 5.015 6.026 4.591 10.416-1.474 18.633-4.866 27.023-11.206 2.402-1.815 3.336-5.102.964-7.477l-5.858-5.865v6.733l5.882-5.885h-6.733l5.848 5.848c2.376 2.376 5.66 1.434 7.477-.964 6.351-8.382 9.742-16.59 11.199-27.009.42-2.999-1.179-6.026-4.591-6.026h-8.278l4.761 4.761v-8.336l-4.761 4.761h8.275c3.411 0 5.011-3.027 4.591-6.026-1.461-10.423-4.859-18.628-11.206-27.016-1.814-2.397-5.104-3.341-7.477-.964l-5.848 5.858h6.733l-5.885-5.871v6.733l5.858-5.875c2.368-2.375 1.443-5.663-.964-7.477-8.396-6.329-16.614-9.718-27.03-11.186-2.998-.422-6.028 1.182-6.026 4.591l.003 8.275 4.761-4.761h-8.319l4.761 4.761-.003-8.275c-.001-3.408-3.026-5.015-6.026-4.591-10.415 1.473-18.633 4.861-27.023 11.199-2.403 1.816-3.334 5.101-.964 7.477l5.858 5.871v-6.733l-5.888 5.875h6.733l-5.851-5.854c-2.373-2.375-5.663-1.436-7.477.964-6.343 8.391-9.736 16.597-11.193 27.02-.835 5.992 8.338 8.582 9.184 2.53Z"/>
  <path fill="#DBAAA6" d="m165.721 545.159 36.956-136.654 495.577-.108 37.017 136.636-569.55.126Z"/>
  <path fill="#282828" d="m168.782 546.003 20.72-76.619 12.532-46.34c.792-2.928 3.646-8.825 3.22-11.908-.432-3.136-3.131.386-1.792.543 13.129 1.538 27.367-.006 40.559-.009l83.75-.018 219.371-.048 93.559-.02c16.993-.004 35.2 1.858 52.112-.011 1.608-.178 3.29.213 4.893-.001-3.106.414-1.683-4.479-1.582 1.106.094 5.248 3.211 11.851 4.574 16.884l7.094 26.186 24.417 90.13 3.06-4.018-192.781.043-305.88.068-70.888.016c-4.084.001-4.091 6.349 0 6.348l192.781-.043 305.88-.068 70.888-.016c2.068 0 3.6-2.028 3.06-4.018l-37.017-136.637c-.364-1.345-1.671-2.33-3.06-2.33l-167.31.037-266.824.059-61.443.013c-1.388 0-2.697.985-3.06 2.33L162.66 544.316c-1.067 3.947 5.055 5.632 6.122 1.687Z"/>
  <path fill="#DBAAA6" d="M827.098 529.327c0-5.103 4.138-9.241 9.251-9.244 5.103 0 9.241 4.138 9.244 9.241 0 5.113-4.137 9.251-9.241 9.254a9.25 9.25 0 0 1-9.254-9.251Z"/>
  <path fill="#282828" d="M836.354 541.117c-6.499 0-11.79-5.289-11.796-11.789 0-6.493 5.289-11.78 11.789-11.784 6.493 0 11.781 5.283 11.786 11.778 0 6.498-5.285 11.79-11.779 11.795Zm-6.717-11.791c.003 3.702 3.015 6.713 6.715 6.713 3.695-.003 6.701-3.015 6.701-6.715-.003-3.693-3.01-6.7-6.705-6.7-3.699.001-6.711 3.007-6.711 6.702Z"/>
  <path fill="#DBAAA6" d="M31.96 529.503c-.003-5.107 4.134-9.244 9.247-9.244 5.096-.003 9.234 4.134 9.237 9.237 0 5.113-4.138 9.254-9.234 9.254a9.241 9.241 0 0 1-9.25-9.247Z"/>
  <path fill="#282828" d="M41.211 541.29c-6.5 0-11.789-5.287-11.79-11.786v-.001a11.701 11.701 0 0 1 3.45-8.333 11.712 11.712 0 0 1 8.337-3.45h.007c3.14 0 6.093 1.226 8.318 3.449a11.722 11.722 0 0 1 3.452 8.327c-.001 6.504-5.283 11.794-11.774 11.794Zm.002-18.491h-.004a6.674 6.674 0 0 0-4.749 1.963 6.654 6.654 0 0 0-1.961 4.739v.001c0 3.699 3.01 6.708 6.711 6.708 3.692 0 6.694-3.012 6.694-6.714a6.668 6.668 0 0 0-1.963-4.739 6.653 6.653 0 0 0-4.728-1.958Z"/>
  <path fill="#DBAAA6" d="M823.762 44.33c-.003-5.106 4.134-9.244 9.247-9.244 5.103-.003 9.244 4.134 9.244 9.241.003 5.103-4.134 9.241-9.241 9.244-5.109-.001-9.25-4.138-9.25-9.241Z"/>
  <path fill="#282828" d="M833.014 56.11c-6.502 0-11.79-5.285-11.792-11.779a11.698 11.698 0 0 1 3.449-8.333 11.71 11.71 0 0 1 8.337-3.452h.007a11.7 11.7 0 0 1 8.323 3.449 11.702 11.702 0 0 1 3.453 8.332 11.703 11.703 0 0 1-3.448 8.33 11.713 11.713 0 0 1-8.329 3.453Zm0-18.485h-.004a6.674 6.674 0 0 0-4.749 1.963 6.648 6.648 0 0 0-1.959 4.739v.001c0 3.695 3.01 6.701 6.711 6.701a6.665 6.665 0 0 0 4.741-1.965 6.648 6.648 0 0 0 1.959-4.738 6.661 6.661 0 0 0-1.963-4.742 6.661 6.661 0 0 0-4.736-1.959Z"/>
  <path fill="#DBAAA6" d="M31.852 44.503c-.003-5.103 4.134-9.244 9.247-9.244 5.096 0 9.234 4.138 9.237 9.241 0 5.103-4.137 9.244-9.234 9.244-5.109.003-9.25-4.135-9.25-9.241Z"/>
  <path fill="#282828" d="M41.095 56.284a11.706 11.706 0 0 1-8.329-3.448 11.704 11.704 0 0 1-3.455-8.332v-.001a11.705 11.705 0 0 1 3.449-8.332 11.72 11.72 0 0 1 8.339-3.452c6.489 0 11.772 5.283 11.776 11.778 0 6.499-5.282 11.786-11.773 11.786l-.007.001Zm.005-18.485a6.672 6.672 0 0 0-4.748 1.963 6.652 6.652 0 0 0-1.961 4.739v.001c0 1.79.697 3.474 1.964 4.741a6.665 6.665 0 0 0 4.742 1.961h.004c3.693 0 6.696-3.008 6.696-6.705-.002-3.693-3.007-6.7-6.697-6.7Z"/>
  <path fill="#DBAAA6" d="m230.962 300.172 413.585-.092c8.669 0 15.714-7.048 15.71-15.734l-.024-100.46c0-8.686-7.048-15.72-15.717-15.717l-413.582.088c-8.686.003-15.731 7.041-15.727 15.727l.02 100.46c.001 8.687 7.049 15.732 15.735 15.728Zm316.838-70.27c.87-9.808 4.75-18.736 10.716-25.882l5.858 5.854 5.871-5.875-5.848-5.875a46.753 46.753 0 0 1 25.886-10.716v8.275l8.312-.003-.003-8.275a46.805 46.805 0 0 1 25.899 10.706l-5.854 5.878 5.885 5.871 5.861-5.858c5.97 7.146 9.853 16.071 10.719 25.879h-8.285l.003 8.336 8.282-.003a46.624 46.624 0 0 1-10.706 25.876l-5.868-5.848-5.878 5.885 5.858 5.865a46.796 46.796 0 0 1-25.896 10.726v-8.296l-8.312.003.003 8.292a46.711 46.711 0 0 1-25.893-10.713l5.848-5.868-5.875-5.882-5.854 5.851a46.727 46.727 0 0 1-10.73-25.872h8.278l-.003-8.336-8.274.005Zm-204.384-45.638 188.609-.041.02 102.632-188.605.041-.024-102.632ZM234.369 229.97c.853-9.808 4.733-18.733 10.713-25.882l5.851 5.854 5.888-5.875-5.858-5.871a46.728 46.728 0 0 1 25.886-10.719l.003 8.275h8.319l-.003-8.275a46.776 46.776 0 0 1 25.893 10.706l-5.858 5.875 5.885 5.871 5.848-5.858c5.984 7.146 9.87 16.071 10.726 25.879h-8.275v8.336h8.278a46.45 46.45 0 0 1-10.719 25.872l-5.848-5.848-5.882 5.885 5.858 5.865a46.724 46.724 0 0 1-25.886 10.726v-8.296l-8.319.003v8.292a46.687 46.687 0 0 1-25.889-10.713l5.854-5.868-5.892-5.882-5.848 5.851a46.442 46.442 0 0 1-10.726-25.869l8.275-.003v-8.336l-8.274.005Z"/>
  <path fill="#000" d="M230.957 303.051a18.482 18.482 0 0 1-13.154-5.448 18.481 18.481 0 0 1-5.453-13.159l-.021-100.459a18.476 18.476 0 0 1 5.449-13.155 18.486 18.486 0 0 1 13.155-5.45l413.584-.089h.004c4.963 0 9.627 1.932 13.14 5.442a18.479 18.479 0 0 1 5.452 13.154l.024 100.459a18.496 18.496 0 0 1-5.445 13.159 18.463 18.463 0 0 1-13.145 5.453l-413.584.093h-.006Zm413.566-132.003h-.004l-413.584.089c-7.086.003-12.852 5.765-12.849 12.847l.021 100.461c0 3.432 1.338 6.659 3.767 9.088a12.765 12.765 0 0 0 9.083 3.762h.004l413.585-.093c3.425 0 6.646-1.337 9.072-3.765a12.775 12.775 0 0 0 3.761-9.089l-.024-100.459c0-3.432-1.337-6.658-3.764-9.082a12.735 12.735 0 0 0-9.068-3.759ZM340.562 289.774l-.024-108.389 194.366-.041.02 108.389-194.362.041Zm5.733-102.632.024 96.875 182.849-.041-.02-96.875-182.853.041Zm-63.985 96.792v-8.563l-2.562.001v8.559l-3.131-.277a49.413 49.413 0 0 1-27.482-11.373l-2.41-2.017 6.041-6.055-1.819-1.817-6.035 6.038-2.02-2.405c-6.564-7.816-10.502-17.315-11.388-27.47l-.274-3.127 8.537-.003v-2.579l-8.535.003.273-3.129c.881-10.136 4.814-19.638 11.372-27.481l2.02-2.415 6.042 6.048 1.815-1.81-6.044-6.06 2.41-2.016c7.817-6.54 17.318-10.473 27.477-11.379l3.133-.278.003 8.542h2.562l-.003-8.541 3.133.277c10.145.897 19.648 4.826 27.484 11.363l2.415 2.015-6.046 6.064 1.81 1.806 6.039-6.049 2.02 2.413c6.563 7.841 10.501 17.342 11.387 27.478l.274 3.129h-8.538v2.579h8.54l-.273 3.128c-.884 10.153-4.819 19.654-11.381 27.472l-2.02 2.405-6.032-6.031-1.813 1.815 6.046 6.055-2.412 2.017a49.48 49.48 0 0 1-27.477 11.386l-3.138.282Zm-26.993-14.132a43.599 43.599 0 0 0 18.674 7.729v-7.913l14.076-.007v7.917a43.631 43.631 0 0 0 18.67-7.737l-5.588-5.596 9.948-9.955 5.584 5.583a43.324 43.324 0 0 0 7.733-18.657h-7.904v-14.093h7.9a43.499 43.499 0 0 0-7.738-18.662l-5.578 5.588-9.959-9.935 5.59-5.606a43.7 43.7 0 0 0-18.674-7.724l.003 7.897h-14.076l-.003-7.896a43.633 43.633 0 0 0-18.673 7.733l5.591 5.605-9.961 9.939-5.58-5.584a43.476 43.476 0 0 0-7.729 18.663l7.9-.003v14.092l-7.899.003a43.328 43.328 0 0 0 7.736 18.656l5.581-5.584 9.965 9.946-5.589 5.601Zm340.418 14.063v-8.562h-2.555l.004 8.559-3.133-.277a49.433 49.433 0 0 1-27.487-11.372l-2.409-2.014 6.036-6.059-1.81-1.813-6.041 6.038-2.018-2.41a49.456 49.456 0 0 1-11.39-27.463l-.281-3.136h8.547l-.001-2.579-8.542.004.278-3.134c.899-10.138 4.832-19.638 11.373-27.472l2.017-2.417 6.049 6.046 1.807-1.809-6.038-6.065 2.409-2.014a49.486 49.486 0 0 1 27.477-11.376l3.134-.28v8.542l2.555-.001-.004-8.542 3.134.278a49.542 49.542 0 0 1 27.489 11.362l2.415 2.014-6.045 6.067 1.816 1.812 6.053-6.052 2.018 2.416c6.547 7.837 10.482 17.336 11.377 27.471l.277 3.131h-8.549v2.579l8.548-.004-.276 3.131c-.891 10.147-4.821 19.647-11.365 27.471l-2.016 2.409-6.056-6.035-1.814 1.817 6.049 6.055-2.415 2.017a49.534 49.534 0 0 1-27.485 11.386l-3.132.281Zm-26.989-14.131a43.619 43.619 0 0 0 18.679 7.729l-.004-7.913 14.071-.006v7.915a43.741 43.741 0 0 0 18.679-7.737l-5.588-5.594 9.944-9.955 5.601 5.582a43.534 43.534 0 0 0 7.722-18.662l-7.904.004-.006-14.095h7.909a43.62 43.62 0 0 0-7.733-18.66l-5.59 5.585-9.956-9.932 5.587-5.609a43.719 43.719 0 0 0-18.683-7.724l.004 7.894-14.071.007v-7.897a43.648 43.648 0 0 0-18.673 7.733l5.58 5.605-9.937 9.941-5.588-5.585a43.69 43.69 0 0 0-7.729 18.663l7.893-.004.007 14.095h-7.899a43.659 43.659 0 0 0 7.738 18.656l5.587-5.585 9.939 9.951-5.579 5.598Z"/>
  <path fill="#D7897D" d="M594.462 290.534c31.152-.007 56.385-25.267 56.382-56.422-.01-31.138-25.253-56.372-56.409-56.365-31.156.007-56.388 25.25-56.382 56.389.007 31.155 25.25 56.405 56.409 56.398ZM547.8 229.902c.87-9.808 4.75-18.736 10.716-25.882l5.858 5.854 5.871-5.875-5.848-5.875a46.753 46.753 0 0 1 25.886-10.716v8.275l8.312-.003-.003-8.275a46.805 46.805 0 0 1 25.899 10.706l-5.854 5.878 5.885 5.871 5.861-5.858c5.97 7.146 9.853 16.071 10.719 25.879h-8.285l.003 8.336 8.282-.003a46.624 46.624 0 0 1-10.706 25.876l-5.868-5.848-5.878 5.885 5.858 5.865a46.796 46.796 0 0 1-25.896 10.726v-8.296l-8.312.003.003 8.292a46.711 46.711 0 0 1-25.893-10.713l5.848-5.868-5.875-5.882-5.854 5.851a46.727 46.727 0 0 1-10.73-25.872h8.278l-.003-8.336-8.274.005Z"/>
  <path fill="#D7897D" d="M594.449 291.803c-31.793 0-57.659-25.866-57.666-57.669-.006-31.786 25.856-57.651 57.652-57.658h.013c31.789 0 57.655 25.85 57.664 57.634.004 31.804-25.858 57.686-57.65 57.693h-.013Zm.013-2.538c30.393-.007 55.116-24.749 55.112-55.154-.01-30.38-24.74-55.095-55.126-55.095h-.013c-30.395.007-55.119 24.733-55.114 55.119.007 30.4 24.737 55.13 55.128 55.13h.013Zm2.882-7.158v-8.413l-5.774.001.004 8.41-1.381-.122a47.842 47.842 0 0 1-26.596-11.003l-1.064-.888 5.931-5.952-4.083-4.087-5.935 5.932-.891-1.063a47.85 47.85 0 0 1-11.02-26.573l-.124-1.383h8.396l-.003-5.798-8.392.004.122-1.383c.87-9.809 4.676-19.002 11.006-26.584l.89-1.065 5.942 5.939 4.079-4.081-5.931-5.959 1.063-.888a47.882 47.882 0 0 1 26.587-11.008l1.382-.122v8.392l5.774-.003-.004-8.392 1.383.122a47.955 47.955 0 0 1 26.601 10.995l1.064.888-5.938 5.962 4.09 4.08 5.946-5.942.89 1.065c6.336 7.584 10.143 16.776 11.01 26.58l.122 1.382h-8.402l.001 5.798 8.399-.004-.121 1.381c-.862 9.819-4.665 19.009-10.996 26.58l-.89 1.063-5.951-5.931-4.086 4.091 5.942 5.948-1.065.89a47.928 47.928 0 0 1-26.597 11.017l-1.38.124Zm-31.04-12.201a45.266 45.266 0 0 0 22.73 9.404l-.004-8.153 10.853-.004v8.157a45.388 45.388 0 0 0 22.733-9.417l-5.76-5.765 7.672-7.681 5.769 5.751a45.166 45.166 0 0 0 9.398-22.714l-8.145.004-.004-10.877h8.147a45.279 45.279 0 0 0-9.409-22.715l-5.761 5.758-7.682-7.664 5.757-5.779a45.374 45.374 0 0 0-22.736-9.398l.004 8.135-10.853.006v-8.138a45.326 45.326 0 0 0-22.725 9.409l5.75 5.775-7.665 7.668-5.758-5.755a45.337 45.337 0 0 0-9.407 22.718l8.135-.004.006 10.877h-8.139a45.267 45.267 0 0 0 9.418 22.709l5.757-5.754 7.667 7.677-5.748 5.77Zm-284.352 20.696c31.155-.007 56.389-25.267 56.382-56.423-.007-31.138-25.254-56.371-56.409-56.365-31.152.007-56.395 25.25-56.389 56.388.007 31.157 25.261 56.407 56.416 56.4Zm-36.87-86.514 5.851 5.854 5.888-5.875-5.858-5.871a46.728 46.728 0 0 1 25.886-10.719l.003 8.275h8.319l-.003-8.275a46.776 46.776 0 0 1 25.893 10.706l-5.858 5.875 5.885 5.871 5.848-5.858c5.984 7.146 9.87 16.071 10.726 25.879h-8.275v8.336h8.278a46.45 46.45 0 0 1-10.719 25.872l-5.848-5.848-5.882 5.885 5.858 5.865a46.724 46.724 0 0 1-25.886 10.726v-8.296l-8.319.003v8.292a46.687 46.687 0 0 1-25.889-10.713l5.854-5.868-5.892-5.882-5.848 5.851a46.442 46.442 0 0 1-10.726-25.869l8.275-.003v-8.336l-8.275.003c.854-9.806 4.734-18.73 10.714-25.88Z"/>
  <path fill="#D7897D" d="M281.939 291.871c-31.796 0-57.664-25.866-57.671-57.667-.004-15.4 5.991-29.877 16.881-40.767 10.89-10.89 25.371-16.888 40.776-16.891h.013c31.793 0 57.659 25.851 57.666 57.634.004 15.408-5.99 29.894-16.877 40.789-10.887 10.896-25.368 16.899-40.775 16.902h-.013Zm-.002-112.787h-.013c-14.728.003-28.572 5.737-38.982 16.147-10.409 10.41-16.14 24.251-16.138 38.972.007 30.399 24.74 55.126 55.133 55.129h.013c14.728-.004 28.572-5.743 38.979-16.159 10.407-10.416 16.138-24.264 16.135-38.994-.006-30.38-24.736-55.095-55.127-55.095Zm1.982 103.091v-8.413l-5.781.003v8.41l-1.38-.122a47.814 47.814 0 0 1-26.593-11.005l-1.063-.89 5.937-5.951-4.096-4.088-5.931 5.934-.891-1.061c-6.35-7.561-10.159-16.752-11.017-26.574l-.121-1.38 8.391-.003v-5.796l-8.389.003.12-1.38c.853-9.806 4.658-19 11.003-26.587l.891-1.065 5.935 5.939 4.091-4.083-5.94-5.954 1.063-.89a47.865 47.865 0 0 1 26.588-11.01l1.382-.122.003 8.393h5.779l-.003-8.393 1.383.122c9.816.868 19.012 4.67 26.594 10.996l1.065.89-5.942 5.958 4.089 4.079 5.932-5.942.891 1.064c6.35 7.587 10.16 16.778 11.017 26.584l.121 1.38h-8.392v5.798h8.393l-.119 1.379c-.856 9.824-4.663 19.014-11.012 26.579l-.891 1.061-5.93-5.928-4.086 4.089 5.939 5.949-1.063.89a47.87 47.87 0 0 1-26.588 11.017l-1.379.12Zm-31.047-12.201a45.241 45.241 0 0 0 22.728 9.407v-8.154l10.857-.006v8.159a45.304 45.304 0 0 0 22.724-9.417l-5.758-5.767 7.675-7.681 5.751 5.751a45.004 45.004 0 0 0 9.411-22.711h-8.142v-10.874h8.138c-.98-8.31-4.214-16.111-9.417-22.716l-5.75 5.758-7.681-7.663 5.759-5.776a45.346 45.346 0 0 0-22.729-9.4l.003 8.136h-10.859l-.003-8.136a45.297 45.297 0 0 0-22.725 9.411l5.76 5.775-7.684 7.667-5.751-5.755c-5.199 6.607-8.429 14.409-9.405 22.718l8.138-.003v10.875l-8.136.003a44.994 44.994 0 0 0 9.414 22.708l5.751-5.754 7.688 7.675-5.757 5.77Z"/>
  <path fill="#32212C" d="M734.318 352.682H135.704c-16.666 0-30.224-13.558-30.224-30.224V138.85c0-16.669 13.558-30.227 30.224-30.227h598.614c16.666 0 30.224 13.558 30.224 30.227v183.608c0 16.665-13.558 30.224-30.224 30.224ZM135.704 112.06c-14.769 0-26.787 12.018-26.787 26.79v183.608c0 14.769 12.018 26.787 26.787 26.787h598.614c14.772 0 26.787-12.018 26.787-26.787V138.85c0-14.772-12.015-26.79-26.787-26.79H135.704Z"/>
  <defs>
    <filter id="a" width="848.326" height="541.018" x="13.838" y="17.492" color-interpolation-filters="sRGB" filterUnits="userSpaceOnUse">
      <feFlood flood-opacity="0" result="BackgroundImageFix"/>
      <feColorMatrix in="SourceAlpha" result="hardAlpha" values="0 0 0 0 0 0 0 0 0 0 0 0 0 0 0 0 0 0 127 0"/>
      <feOffset dy="4"/>
      <feGaussianBlur stdDeviation="2"/>
      <feComposite in2="hardAlpha" operator="out"/>
      <feColorMatrix values="0 0 0 0 0 0 0 0 0 0 0 0 0 0 0 0 0 0 0.25 0"/>
      <feBlend in2="BackgroundImageFix" result="effect1_dropShadow_4_264"/>
      <feBlend in="SourceGraphic" in2="effect1_dropShadow_4_264" result="shape"/>
    </filter>
  </defs>
</svg>
