<?xml version="1.0" standalone="no"?>
<svg xmlns:xlink="http://www.w3.org/1999/xlink" id="wave" style="transform:rotate(0deg); transition: 0.3s" viewBox="0 0 1440 420" version="1.1" xmlns="http://www.w3.org/2000/svg"><defs><linearGradient id="sw-gradient-0" x1="0" x2="0" y1="1" y2="0"><stop stop-color="rgba(88, 144, 125, 1)" offset="0%"/><stop stop-color="rgba(88, 144, 125, 1)" offset="100%"/></linearGradient></defs><path style="transform:translate(0, 0px); opacity:1" fill="url(#sw-gradient-0)" d="M0,84L60,70C120,56,240,28,360,35C480,42,600,84,720,91C840,98,960,70,1080,63C1200,56,1320,70,1440,119C1560,168,1680,252,1800,287C1920,322,2040,308,2160,315C2280,322,2400,350,2520,364C2640,378,2760,378,2880,336C3000,294,3120,210,3240,161C3360,112,3480,98,3600,133C3720,168,3840,252,3960,280C4080,308,4200,280,4320,280C4440,280,4560,308,4680,322C4800,336,4920,336,5040,287C5160,238,5280,140,5400,147C5520,154,5640,266,5760,273C5880,280,6000,182,6120,168C6240,154,6360,224,6480,224C6600,224,6720,154,6840,112C6960,70,7080,56,7200,98C7320,140,7440,238,7560,238C7680,238,7800,140,7920,140C8040,140,8160,238,8280,238C8400,238,8520,140,8580,91L8640,42L8640,420L8580,420C8520,420,8400,420,8280,420C8160,420,8040,420,7920,420C7800,420,7680,420,7560,420C7440,420,7320,420,7200,420C7080,420,6960,420,6840,420C6720,420,6600,420,6480,420C6360,420,6240,420,6120,420C6000,420,5880,420,5760,420C5640,420,5520,420,5400,420C5280,420,5160,420,5040,420C4920,420,4800,420,4680,420C4560,420,4440,420,4320,420C4200,420,4080,420,3960,420C3840,420,3720,420,3600,420C3480,420,3360,420,3240,420C3120,420,3000,420,2880,420C2760,420,2640,420,2520,420C2400,420,2280,420,2160,420C2040,420,1920,420,1800,420C1680,420,1560,420,1440,420C1320,420,1200,420,1080,420C960,420,840,420,720,420C600,420,480,420,360,420C240,420,120,420,60,420L0,420Z"/><defs><linearGradient id="sw-gradient-1" x1="0" x2="0" y1="1" y2="0"><stop stop-color="rgba(245, 224, 131, 1)" offset="0%"/><stop stop-color="rgba(245, 224, 131, 1)" offset="100%"/></linearGradient></defs><path style="transform:translate(0, 50px); opacity:0.9" fill="url(#sw-gradient-1)" d="M0,336L60,301C120,266,240,196,360,147C480,98,600,70,720,70C840,70,960,98,1080,112C1200,126,1320,126,1440,112C1560,98,1680,70,1800,91C1920,112,2040,182,2160,189C2280,196,2400,140,2520,126C2640,112,2760,140,2880,126C3000,112,3120,56,3240,70C3360,84,3480,168,3600,224C3720,280,3840,308,3960,322C4080,336,4200,336,4320,294C4440,252,4560,168,4680,161C4800,154,4920,224,5040,259C5160,294,5280,294,5400,266C5520,238,5640,182,5760,189C5880,196,6000,266,6120,280C6240,294,6360,252,6480,245C6600,238,6720,266,6840,245C6960,224,7080,154,7200,154C7320,154,7440,224,7560,224C7680,224,7800,154,7920,147C8040,140,8160,196,8280,224C8400,252,8520,252,8580,252L8640,252L8640,420L8580,420C8520,420,8400,420,8280,420C8160,420,8040,420,7920,420C7800,420,7680,420,7560,420C7440,420,7320,420,7200,420C7080,420,6960,420,6840,420C6720,420,6600,420,6480,420C6360,420,6240,420,6120,420C6000,420,5880,420,5760,420C5640,420,5520,420,5400,420C5280,420,5160,420,5040,420C4920,420,4800,420,4680,420C4560,420,4440,420,4320,420C4200,420,4080,420,3960,420C3840,420,3720,420,3600,420C3480,420,3360,420,3240,420C3120,420,3000,420,2880,420C2760,420,2640,420,2520,420C2400,420,2280,420,2160,420C2040,420,1920,420,1800,420C1680,420,1560,420,1440,420C1320,420,1200,420,1080,420C960,420,840,420,720,420C600,420,480,420,360,420C240,420,120,420,60,420L0,420Z"/><defs><linearGradient id="sw-gradient-2" x1="0" x2="0" y1="1" y2="0"><stop stop-color="rgba(244, 162, 89, 1)" offset="0%"/><stop stop-color="rgba(244, 162, 89, 1)" offset="100%"/></linearGradient></defs><path style="transform:translate(0, 100px); opacity:0.8" fill="url(#sw-gradient-2)" d="M0,378L60,357C120,336,240,294,360,245C480,196,600,140,720,133C840,126,960,168,1080,182C1200,196,1320,182,1440,210C1560,238,1680,308,1800,308C1920,308,2040,238,2160,182C2280,126,2400,84,2520,70C2640,56,2760,70,2880,119C3000,168,3120,252,3240,273C3360,294,3480,252,3600,259C3720,266,3840,322,3960,287C4080,252,4200,126,4320,70C4440,14,4560,28,4680,42C4800,56,4920,70,5040,63C5160,56,5280,28,5400,42C5520,56,5640,112,5760,133C5880,154,6000,140,6120,112C6240,84,6360,42,6480,63C6600,84,6720,168,6840,231C6960,294,7080,336,7200,315C7320,294,7440,210,7560,182C7680,154,7800,182,7920,210C8040,238,8160,266,8280,266C8400,266,8520,238,8580,224L8640,210L8640,420L8580,420C8520,420,8400,420,8280,420C8160,420,8040,420,7920,420C7800,420,7680,420,7560,420C7440,420,7320,420,7200,420C7080,420,6960,420,6840,420C6720,420,6600,420,6480,420C6360,420,6240,420,6120,420C6000,420,5880,420,5760,420C5640,420,5520,420,5400,420C5280,420,5160,420,5040,420C4920,420,4800,420,4680,420C4560,420,4440,420,4320,420C4200,420,4080,420,3960,420C3840,420,3720,420,3600,420C3480,420,3360,420,3240,420C3120,420,3000,420,2880,420C2760,420,2640,420,2520,420C2400,420,2280,420,2160,420C2040,420,1920,420,1800,420C1680,420,1560,420,1440,420C1320,420,1200,420,1080,420C960,420,840,420,720,420C600,420,480,420,360,420C240,420,120,420,60,420L0,420Z"/></svg>